<svg xmlns="http://www.w3.org/2000/svg" version="1.1" xmlns:xlink="http://www.w3.org/1999/xlink" viewBox="0 0 22.698365529795687 5.964752242403856"><g transform="matrix(1,0,0,1,4.913162207734677,2.002013621201928)"><rect width="22.698365529795687" height="22.698365529795687" x="-4.913162207734677" y="-10.368820264897844" fill="#ffffff"></rect><g clip-path="url(#SvgjsClipPath1006)"><g clip-path="url(#SvgjsClipPath1000d22818d3-9828-4f64-8cc8-8152dbea3493)"><path d=" M -0.5400235267623881 1.513672082156711 C -0.6721445412870644 1.2878510009513295 -0.8564082707428438 1.1039793219837541 -1.0387117477576044 0.9483352781668506 C -1.426841731079353 0.6268538778397459 -0.6646955820111922 0.15090458516034944 -0.6403884517425569 -0.11961025170026318 C -0.6305871895374624 -0.22703208546810072 -0.7489864369750063 -0.26741328575309065 -0.8528798163490094 -0.28270325479303837 C -0.9814723764798514 -0.3015216782268203 -1.1104569870988978 -0.3077944860380806 -1.2374813452769247 -0.3015216782268203 C -1.337846270257094 -0.29642502188017106 -1.436250942796244 -0.28387940625764985 -1.5326953628943754 -0.2662371342884794 C -1.7067657796568563 -0.2344810447439728 -1.8773077420255033 -0.1854747337184992 -2.045497401464928 -0.13333201878739587 C -2.1192028932472398 -0.11055388542275613 -2.193300435517756 -0.08695244603288799 -2.2672019525441693 -0.06178280469020492 L -2.5908396305563945 0.4484709057070233 L -2.902558973727225 0.2198662660353956 C -3.0526359006116346 0.30937139249232004 -3.193695666267357 0.4167540212113372 -3.319661488127233 0.5496199316636001 C -3.488635248543065 0.7276108533081191 -3.6325177777138546 0.9381419654735526 -3.7579739339390663 1.165139198143545 C -3.8653957677069037 1.359596240292623 -3.9630163392696467 1.5760081097811125 -3.983402964656243 1.8010450900100863 C -4.02652851835866 2.282091039036132 -3.6968140577792754 2.599651934481199 -3.3302468513087353 2.775682603684699 C -3.042050537430132 2.914154836118276 -2.7178247836856 2.9892717096581216 -2.38328810210131 3.0117362026321985 L -3.6756433314162713 2.265624918531573 L -3.676035381904475 2.074696330776329 L -3.508629823441458 1.9780558854340953 L -3.508629823441458 1.6289349256886236 L -3.6003696376811445 1.5760081097811125 L -3.010333652934446 0.5543245375220454 L -2.774868129719252 0.6902092367334776 L -2.594760135438433 0.586080627066552 L -2.501452119245932 0.6397915439504707 L -2.501452119245932 0.7503497816239386 L -2.501452119245932 0.8479703531866813 L -2.4451144640910476 0.8805105437075953 L -1.7949771395027083 1.2557028609186194 L -1.2053332052442136 1.5963947351677095 L -1.234736991859498 1.6477533491224055 L -1.3562726432026713 1.577576311733928 L -1.3562726432026713 2.084693618225525 L -1.188867084739655 2.1813340635677587 L -1.188867084739655 2.3722626513230027 L -1.3238108627793976 2.4502806984755563 L -1.2770784445855066 2.4773321821616174 L -1.2770784445855066 2.572600450795137 L -1.827125279535419 2.8905533967284076 L -1.2770784445855066 2.572992501283341 L -1.194355791574508 2.6204306103559993 L -1.0047993805279765 2.795402743241349 C -0.8722863155150975 2.7316553338594134 -0.7490648470726469 2.6506184979476903 -0.6419566536953729 2.5479012700382984 C -0.35379954486558907 2.2715056758546295 -0.3271401116677315 1.8782790361862318 -0.5400235267623881 1.513672082156711 Z" fill="#d9ffdc" transform="matrix(1,0,0,1,0,0)" fill-rule="nonzero"></path></g><g clip-path="url(#SvgjsClipPath1000d22818d3-9828-4f64-8cc8-8152dbea3493)"><path d=" M -2.303976288337684 3.0160487580024404 C -2.174638832279255 3.021537464837294 -2.044086019707394 3.0194203922009923 -1.9137684374284554 3.0101287956305636 C -1.8767588713420178 3.007502057359598 -1.8394356648650172 3.004326448405147 -1.8018380230462747 3.0005627637183907 L -2.039616644141871 2.8635019130423474 L -2.303976288337684 3.0160487580024404 Z" fill="#d9ffdc" transform="matrix(1,0,0,1,0,0)" fill-rule="nonzero"></path></g><g clip-path="url(#SvgjsClipPath1000d22818d3-9828-4f64-8cc8-8152dbea3493)"><path d=" M -2.3399273181059717 2.8458596410731762 L -2.1727961949846977 2.7494152209750453 L -2.172874605082338 2.7494152209750453 Z" fill="#d9ffdc" transform="matrix(1,0,0,1,0,0)" fill-rule="nonzero"></path></g><g clip-path="url(#SvgjsClipPath1000d22818d3-9828-4f64-8cc8-8152dbea3493)"><path d=" M -1.3238108627793976 2.4502806984755563 L -1.188867084739655 2.3722626513230027 L -1.188867084739655 2.1813340635677587 L -1.4890993486061141 2.3546595844026528 Z" fill="#bbc0e6" transform="matrix(1,0,0,1,0,0)" fill-rule="nonzero"></path></g><g clip-path="url(#SvgjsClipPath1000d22818d3-9828-4f64-8cc8-8152dbea3493)"><path d=" M -1.188867084739655 2.1813340635677587 L -1.3562726432026713 2.084693618225525 L -1.3562726432026713 2.084889643469628 Z" fill="#f6f6fb" transform="matrix(1,0,0,1,0,0)" fill-rule="nonzero"></path></g><g clip-path="url(#SvgjsClipPath1000d22818d3-9828-4f64-8cc8-8152dbea3493)"><path d=" M -2.172874605082338 2.7494152209750453 L -2.3524729337284924 2.7494152209750453 L -3.508629823441458 2.081753239563997 L -3.508629823441458 1.9780558854340962 L -3.676035381904475 2.074696330776329 L -2.3399273181059717 2.8458596410731762 Z" fill="#f6f6fb" transform="matrix(1,0,0,1,0,0)" fill-rule="nonzero"></path></g><g clip-path="url(#SvgjsClipPath1000d22818d3-9828-4f64-8cc8-8152dbea3493)"><path d=" M -1.4890993486061141 2.3546595844026528 L -1.188867084739655 2.1813340635677587 L -1.4891777587037551 2.3546203793538325 Z" fill="#f6f6fb" transform="matrix(1,0,0,1,0,0)" fill-rule="nonzero"></path></g><g clip-path="url(#SvgjsClipPath1000d22818d3-9828-4f64-8cc8-8152dbea3493)"><path d=" M -2.039616644141871 2.6725733252871025 L -2.1725217596429545 2.7494152209750453 L -2.1727961949846977 2.7494152209750453 L -2.3399273181059717 2.8458596410731762 L -2.3399273181059717 3.036788228828421 L -2.303976288337684 3.0160487580024404 L -2.039616644141871 2.8635019130423474 Z" fill="#bbc0e6" transform="matrix(1,0,0,1,0,0)" fill-rule="nonzero"></path></g><g clip-path="url(#SvgjsClipPath1000d22818d3-9828-4f64-8cc8-8152dbea3493)"><path d=" M -2.3399273181059717 2.8458596410731762 L -3.676035381904475 2.074696330776329 L -3.6756433314162713 2.265624918531573 L -2.38328810210131 3.0117362026321985 L -2.3399273181059717 3.036788228828421 Z" fill="#ced3f8" transform="matrix(1,0,0,1,0,0)" fill-rule="nonzero"></path></g><g clip-path="url(#SvgjsClipPath1000d22818d3-9828-4f64-8cc8-8152dbea3493)"><path d=" M -1.1943557915745076 2.716090929477724 L -1.7444026265244195 3.033651824922791 L -1.5789573205024219 3.033651824922791 L -0.7466341340457832 3.033651824922791 L -1.0047993805279765 2.7954027432413495 L -1.1943557915745076 2.6204306103559993 Z" fill="#dae0f5" transform="matrix(1,0,0,1,0,0)" fill-rule="nonzero"></path></g><g clip-path="url(#SvgjsClipPath1000d22818d3-9828-4f64-8cc8-8152dbea3493)"><path d=" M -1.9061234529084814 2.7494152209750453 L -1.8271252795354185 2.7948930776066843 L -1.748362336455278 2.7494152209750453 Z" fill="#f6f6fb" transform="matrix(1,0,0,1,0,0)" fill-rule="nonzero"></path></g><g clip-path="url(#SvgjsClipPath1000d22818d3-9828-4f64-8cc8-8152dbea3493)"><path d=" M -1.748362336455278 2.7494152209750453 L -1.8271252795354185 2.7948930776066843 L -1.8271252795354185 2.8905533967284085 L -1.2770784445855066 2.5726004507951377 L -1.2770784445855066 2.4773321821616174 L -1.7479310809182542 2.7494152209750453 Z" fill="#bbc0e6" transform="matrix(1,0,0,1,0,0)" fill-rule="nonzero"></path></g><g clip-path="url(#SvgjsClipPath1000d22818d3-9828-4f64-8cc8-8152dbea3493)"><path d=" M -1.1943557915745076 2.716090929477724 L -1.1943557915745076 2.6204306103559993 L -1.7444026265244195 2.938383556289271 L -1.7444026265244195 3.033651824922791 Z" fill="#bbc0e6" transform="matrix(1,0,0,1,0,0)" fill-rule="nonzero"></path></g><g clip-path="url(#SvgjsClipPath1000d22818d3-9828-4f64-8cc8-8152dbea3493)"><path d=" M -1.1943557915745076 2.6204306103559993 L -1.6616799735134213 2.8905533967284085 L -1.8271252795354185 2.8905533967284085 L -1.7444026265244195 2.938383556289271 Z" fill="#f6f6fb" transform="matrix(1,0,0,1,0,0)" fill-rule="nonzero"></path></g><g clip-path="url(#SvgjsClipPath1000d22818d3-9828-4f64-8cc8-8152dbea3493)"><path d=" M -1.7444026265244195 2.938383556289271 L -1.8271252795354185 2.8905533967284085 L -1.8271252795354185 2.7948930776066843 L -1.9061234529084814 2.7494152209750453 L -1.9063194781525836 2.7494152209750453 L -2.039616644141871 2.6725733252871025 L -2.039616644141871 2.8635019130423474 L -1.8018380230462747 3.0005627637183907 L -1.7444026265244195 3.033651824922791 Z" fill="#ced3f8" transform="matrix(1,0,0,1,0,0)" fill-rule="nonzero"></path></g><g clip-path="url(#SvgjsClipPath1000d22818d3-9828-4f64-8cc8-8152dbea3493)"><path d=" M -1.3562726432026713 2.174277154780091 L -1.6546230647257527 2.346504934248014 L -1.6546230647257527 2.373438802787614 L -1.6902996591522972 2.3938254281742113 L -1.7134306379563204 2.3804957115752825 L -1.7552624250476652 2.4046068165998156 L -1.940427870626313 2.5115189847329873 L -1.940427870626313 2.5349636039275745 L -1.9761044650528574 2.5557422798023746 L -1.9964910904394546 2.5439807651562614 L -1.9964910904394546 2.543902355058621 L -2.3524729337284924 2.7494152209750453 L -2.172874605082338 2.7494152209750453 L -2.1727961949846977 2.7494152209750453 L -2.1725217596429545 2.7494152209750453 L -2.039616644141871 2.6725733252871025 L -1.9063194781525836 2.7494152209750453 L -1.9061234529084814 2.7494152209750453 L -1.748362336455278 2.7494152209750453 L -1.7479310809182542 2.7494152209750453 L -1.2770784445855066 2.4773321821616174 L -1.3238108627793976 2.4502806984755563 L -1.4890993486061141 2.3546595844026528 L -1.4891777587037551 2.3546203793538325 L -1.188867084739655 2.1813340635677587 L -1.3562726432026713 2.084889643469628 Z" fill="#dae0f5" transform="matrix(1,0,0,1,0,0)" fill-rule="nonzero"></path></g><g clip-path="url(#SvgjsClipPath1000d22818d3-9828-4f64-8cc8-8152dbea3493)"><path d=" M -2.3524729337284924 2.7494152209750453 L -2.3521592933379294 2.2886774872379556 L -2.3556093376341227 2.2946366546586536 L -2.3850131242494066 2.2773864331776865 L -2.5445776729483476 2.1852937734986173 L -2.5445776729483476 2.4683150209329305 L -2.812740206879737 2.313455078092435 L -2.812740206879737 2.3054180430842575 L -2.851161154723709 2.283267190500743 L -2.851161154723709 2.008361388172248 L -3.0166064607457064 1.9128970942946268 L -3.0166064607457064 2.1958399316312986 L -3.2847689946770964 2.0409799887908036 L -3.2847689946770964 2.0327077234897035 L -3.3227978920328636 2.0107921011991117 L -3.3227978920328636 1.73619993926118 L -3.508629823441458 1.6289349256886236 L -3.508629823441458 1.9780558854340962 L -3.508629823441458 2.081753239563997 Z" fill="#ced3f8" transform="matrix(1,0,0,1,0,0)" fill-rule="nonzero"></path></g><g clip-path="url(#SvgjsClipPath1000d22818d3-9828-4f64-8cc8-8152dbea3493)"><path d=" M -2.3521592933379294 2.2886774872379556 L -2.3524729337284924 2.7494152209750453 L -1.9964910904394546 2.543902355058621 L -1.9964910904394546 1.9359104579521889 L -1.6750096901123497 1.7504705770317974 L -1.6546230647257527 1.762232091677911 L -1.6546230647257527 2.346504934248014 L -1.3562726432026713 2.174277154780091 L -1.3562726432026713 2.084889643469628 L -1.3562726432026713 2.084693618225525 L -1.3562726432026713 1.577576311733928 L -1.7949771395027083 1.324311696354282 Z" fill="#ffffff" transform="matrix(1,0,0,1,0,0)" fill-rule="nonzero"></path></g><g clip-path="url(#SvgjsClipPath1000d22818d3-9828-4f64-8cc8-8152dbea3493)"><path d=" M -1.940427870626313 2.5115189847329873 L -1.7552624250476652 2.4046068165998156 L -1.940427870626313 2.5114405746353468 Z" fill="#ffffff" transform="matrix(1,0,0,1,0,0)" fill-rule="nonzero"></path></g><g clip-path="url(#SvgjsClipPath1000d22818d3-9828-4f64-8cc8-8152dbea3493)"><path d=" M -2.5653563488231486 2.428325871136144 L -2.5826065703041152 2.4381271333412387 L -2.812740206879737 2.3054180430842575 L -2.812740206879737 2.313455078092435 L -2.5445776729483476 2.4683150209329305 L -2.5445776729483476 2.1852937734986173 L -2.5653563488231486 2.1732970285595816 Z" fill="#f6f6fb" transform="matrix(1,0,0,1,0,0)" fill-rule="nonzero"></path></g><g clip-path="url(#SvgjsClipPath1000d22818d3-9828-4f64-8cc8-8152dbea3493)"><path d=" M -2.5826065703041152 2.163338946159205 L -2.612402407407603 2.1461671347758795 L -2.612402407407603 2.364421641558927 L -2.612402407407603 2.386376468898339 L -2.820973267132017 2.2660169690197765 L -2.820973267132017 2.025807634897317 L -2.851161154723709 2.008361388172248 L -2.851161154723709 2.283267190500743 L -2.812740206879737 2.3054180430842575 L -2.5826065703041152 2.4381271333412387 Z" fill="#e1e6ff" transform="matrix(1,0,0,1,0,0)" fill-rule="nonzero"></path></g><g clip-path="url(#SvgjsClipPath1000d22818d3-9828-4f64-8cc8-8152dbea3493)"><path d=" M -2.5653563488231486 2.428325871136144 L -2.5653563488231486 2.1732970285595816 L -2.5826065703041152 2.163338946159205 L -2.5826065703041152 2.4381271333412387 Z" fill="#bbc0e6" transform="matrix(1,0,0,1,0,0)" fill-rule="nonzero"></path></g><g clip-path="url(#SvgjsClipPath1000d22818d3-9828-4f64-8cc8-8152dbea3493)"><path d=" M -2.612402407407603 2.364421641558927 L -2.612402407407603 2.1461671347758795 L -2.6955171109068052 2.098180155019736 L -2.6955171109068052 2.3161994315098617 L -2.71668783726981 2.304045866375544 L -2.71668783726981 2.0859873848365984 L -2.801762793210031 2.036863458664664 L -2.801762793210031 2.255039555350071 Z" fill="#9e0f11" transform="matrix(1,0,0,1,0,0)" fill-rule="nonzero"></path></g><g clip-path="url(#SvgjsClipPath1000d22818d3-9828-4f64-8cc8-8152dbea3493)"><path d=" M -2.820973267132017 2.2660169690197765 L -2.612402407407603 2.386376468898339 L -2.612402407407603 2.364421641558927 L -2.801762793210031 2.255039555350071 Z" fill="#ffffff" transform="matrix(1,0,0,1,0,0)" fill-rule="nonzero"></path></g><g clip-path="url(#SvgjsClipPath1000d22818d3-9828-4f64-8cc8-8152dbea3493)"><path d=" M -2.801762793210031 2.255039555350071 L -2.801762793210031 2.036863458664664 L -2.820973267132017 2.025807634897317 L -2.820973267132017 2.2660169690197765 Z" fill="#bbc0e6" transform="matrix(1,0,0,1,0,0)" fill-rule="nonzero"></path></g><g clip-path="url(#SvgjsClipPath1000d22818d3-9828-4f64-8cc8-8152dbea3493)"><path d=" M -2.6955171109068052 2.3161994315098617 L -2.6955171109068052 2.098180155019736 L -2.71668783726981 2.0859873848365984 L -2.71668783726981 2.304045866375544 Z" fill="#bbc0e6" transform="matrix(1,0,0,1,0,0)" fill-rule="nonzero"></path></g><g clip-path="url(#SvgjsClipPath1000d22818d3-9828-4f64-8cc8-8152dbea3493)"><path d=" M -3.0373851366205074 2.1558507818345123 L -3.0542433076132696 2.1656520440396076 L -3.2847689946770964 2.0327077234897035 L -3.2847689946770964 2.0409799887908036 L -3.0166064607457064 2.1958399316312986 L -3.0166064607457064 1.9128970942946268 L -3.0373851366205074 1.9009003493555903 Z" fill="#f6f6fb" transform="matrix(1,0,0,1,0,0)" fill-rule="nonzero"></path></g><g clip-path="url(#SvgjsClipPath1000d22818d3-9828-4f64-8cc8-8152dbea3493)"><path d=" M -3.0542433076132696 1.8911774972481363 L -3.084431195204962 1.8737704555718886 L -3.084431195204962 2.0919465522572955 L -3.084431195204962 2.114293430084912 L -3.2930020549293757 1.993541879718145 L -3.2930020549293757 1.7533717506445061 L -3.3227978920328636 1.73619993926118 L -3.3227978920328636 2.0107921011991117 L -3.2847689946770964 2.0327077234897035 L -3.0542433076132696 2.1656520440396076 Z" fill="#e1e6ff" transform="matrix(1,0,0,1,0,0)" fill-rule="nonzero"></path></g><g clip-path="url(#SvgjsClipPath1000d22818d3-9828-4f64-8cc8-8152dbea3493)"><path d=" M -3.0373851366205074 2.1558507818345123 L -3.0373851366205074 1.9009003493555903 L -3.0542433076132696 1.8911774972481363 L -3.0542433076132696 2.1656520440396076 Z" fill="#bbc0e6" transform="matrix(1,0,0,1,0,0)" fill-rule="nonzero"></path></g><g clip-path="url(#SvgjsClipPath1000d22818d3-9828-4f64-8cc8-8152dbea3493)"><path d=" M -3.2737915810073903 1.9825644660484394 L -3.084431195204962 2.0919465522572955 L -3.084431195204962 1.8737704555718886 L -3.167545898704164 1.825783475815745 L -3.167545898704164 2.04372434220823 L -3.188716625067168 2.0315707770739126 L -3.188716625067168 1.8135907056326075 L -3.2737915810073903 1.764466779460673 Z" fill="#9e0f11" transform="matrix(1,0,0,1,0,0)" fill-rule="nonzero"></path></g><g clip-path="url(#SvgjsClipPath1000d22818d3-9828-4f64-8cc8-8152dbea3493)"><path d=" M -3.2930020549293757 1.993541879718145 L -3.084431195204962 2.114293430084912 L -3.084431195204962 2.0919465522572955 L -3.2737915810073903 1.9825644660484394 Z" fill="#ffffff" transform="matrix(1,0,0,1,0,0)" fill-rule="nonzero"></path></g><g clip-path="url(#SvgjsClipPath1000d22818d3-9828-4f64-8cc8-8152dbea3493)"><path d=" M -3.2930020549293757 1.993541879718145 L -3.2737915810073903 1.9825644660484394 L -3.2737915810073903 1.764466779460673 L -3.2930020549293757 1.7533717506445061 Z" fill="#bbc0e6" transform="matrix(1,0,0,1,0,0)" fill-rule="nonzero"></path></g><g clip-path="url(#SvgjsClipPath1000d22818d3-9828-4f64-8cc8-8152dbea3493)"><path d=" M -3.167545898704164 2.04372434220823 L -3.167545898704164 1.825783475815745 L -3.188716625067168 1.8135907056326075 L -3.188716625067168 2.0315707770739126 Z" fill="#bbc0e6" transform="matrix(1,0,0,1,0,0)" fill-rule="nonzero"></path></g><g clip-path="url(#SvgjsClipPath1000d22818d3-9828-4f64-8cc8-8152dbea3493)"><path d=" M -3.2930020549293757 1.7533717506445061 L -3.2737915810073903 1.764466779460673 L -3.188716625067168 1.8135907056326075 L -3.167545898704164 1.825783475815745 L -3.084431195204962 1.8737704555718886 L -3.0542433076132696 1.8911774972481363 L -3.0373851366205074 1.9009003493555903 L -3.0166064607457064 1.9128970942946268 L -2.851161154723709 2.008361388172248 L -2.820973267132017 2.025807634897317 L -2.801762793210031 2.036863458664664 L -2.71668783726981 2.0859873848365984 L -2.6955171109068052 2.098180155019736 L -2.612402407407603 2.1461671347758795 L -2.5826065703041152 2.163338946159205 L -2.5653563488231486 2.1732970285595816 L -2.5445776729483476 2.1852937734986173 L -2.3850131242494066 2.2773864331776865 L -1.7949771395027083 1.2557028609186194 L -2.4451144640910467 0.880510543707596 L -2.074509137592008 1.0945701102668632 L -2.717079887758014 1.4207561164524134 L -2.810387903950515 1.3670451995684947 L -2.810387903950515 0.8209188695006202 L -2.810387903950515 0.7107526823153565 L -2.774868129719252 0.6902092367334782 L -3.0103336529344458 0.5543245375220458 L -3.600369637681144 1.5760081097811125 L -3.508629823441458 1.6289349256886236 L -3.3227978920328636 1.73619993926118 Z" fill="#ed1c24" transform="matrix(1,0,0,1,0,0)" fill-rule="nonzero"></path></g><g clip-path="url(#SvgjsClipPath1000d22818d3-9828-4f64-8cc8-8152dbea3493)"><path d=" M -2.3850131242494066 2.2773864331776865 L -2.3556093376341227 2.2946366546586536 L -2.3521592933379294 2.2886774872379556 L -1.7949771395027083 1.324311696354282 L -1.3562726432026713 1.577576311733928 L -1.2347369918594975 1.6477533491224063 L -1.2053332052442136 1.59639473516771 L -1.7949771395027083 1.2557028609186194 Z" fill="#9e0f11" transform="matrix(1,0,0,1,0,0)" fill-rule="nonzero"></path></g><g clip-path="url(#SvgjsClipPath1000d22818d3-9828-4f64-8cc8-8152dbea3493)"><path d=" M -2.501452119245931 1.0471320011942051 L -2.717079887758014 1.4207561164524134 L -2.074509137592008 1.0945701102668632 L -2.4451144640910467 0.880510543707596 L -2.501452119245931 0.8479703531866816 Z" fill="#9e0f11" transform="matrix(1,0,0,1,0,0)" fill-rule="nonzero"></path></g><g clip-path="url(#SvgjsClipPath1000d22818d3-9828-4f64-8cc8-8152dbea3493)"><path d=" M -2.717079887758014 0.8750218368727427 L -2.717079887758014 0.9404942684027748 L -2.717079887758014 1.4207561164524134 L -2.501452119245931 1.0471320011942051 L -2.501452119245931 0.8479703531866816 L -2.501452119245931 0.7503497816239386 Z" fill="#bbc0e6" transform="matrix(1,0,0,1,0,0)" fill-rule="nonzero"></path></g><g clip-path="url(#SvgjsClipPath1000d22818d3-9828-4f64-8cc8-8152dbea3493)"><path d=" M -2.717079887758014 0.8750218368727427 L -2.810387903950515 0.8209188695006202 L -2.810387903950515 1.3670451995684947 L -2.717079887758014 1.4207561164524134 L -2.717079887758014 0.9404942684027748 Z" fill="#ced3f8" transform="matrix(1,0,0,1,0,0)" fill-rule="nonzero"></path></g><g clip-path="url(#SvgjsClipPath1000d22818d3-9828-4f64-8cc8-8152dbea3493)"><path d=" M -2.717079887758014 0.7644635991992752 L -2.810387903950515 0.7107526823153565 L -2.810387903950515 0.8209188695006202 L -2.717079887758014 0.8750218368727427 Z" fill="#f14950" transform="matrix(1,0,0,1,0,0)" fill-rule="nonzero"></path></g><g clip-path="url(#SvgjsClipPath1000d22818d3-9828-4f64-8cc8-8152dbea3493)"><path d=" M -2.717079887758014 0.7644635991992752 L -2.717079887758014 0.8750218368727427 L -2.501452119245931 0.7503497816239386 L -2.501452119245931 0.6397915439504711 Z" fill="#ed1c24" transform="matrix(1,0,0,1,0,0)" fill-rule="nonzero"></path></g><g clip-path="url(#SvgjsClipPath1000d22818d3-9828-4f64-8cc8-8152dbea3493)"><path d=" M -2.717079887758014 0.7644635991992752 L -2.501452119245931 0.6397915439504711 L -2.5947601354384324 0.5860806270665524 L -2.774868129719252 0.6902092367334782 L -2.810387903950515 0.7107526823153565 Z" fill="#f4777c" transform="matrix(1,0,0,1,0,0)" fill-rule="nonzero"></path></g><g clip-path="url(#SvgjsClipPath1000d22818d3-9828-4f64-8cc8-8152dbea3493)"><path d=" M -1.1943557915745076 2.6204306103559993 L -1.2770784445855066 2.572992501283342 L -1.8271252795354185 2.8905533967284085 L -1.6616799735134213 2.8905533967284085 Z" fill="#dae0f5" transform="matrix(1,0,0,1,0,0)" fill-rule="nonzero"></path></g><g clip-path="url(#SvgjsClipPath1000d22818d3-9828-4f64-8cc8-8152dbea3493)"><path d=" M -1.9761044650528574 2.5557422798023746 L -1.9761044650528574 1.9476719725983025 L -1.9964910904394546 1.9359104579521889 L -1.9964910904394546 2.543902355058621 L -1.9964910904394546 2.5439807651562614 Z" fill="#a1a9d6" transform="matrix(1,0,0,1,0,0)" fill-rule="nonzero"></path></g><g clip-path="url(#SvgjsClipPath1000d22818d3-9828-4f64-8cc8-8152dbea3493)"><path d=" M -1.6546230647257527 1.762232091677911 L -1.6750096901123497 1.7504705770317974 L -1.9964910904394546 1.9359104579521889 L -1.9761044650528574 1.9476719725983025 Z" fill="#f6f6fb" transform="matrix(1,0,0,1,0,0)" fill-rule="nonzero"></path></g><g clip-path="url(#SvgjsClipPath1000d22818d3-9828-4f64-8cc8-8152dbea3493)"><path d=" M -1.9761044650528574 1.9476719725983025 L -1.9761044650528574 2.5557422798023746 L -1.940427870626313 2.5349636039275745 L -1.940427870626313 2.5115189847329873 L -1.940427870626313 2.5114405746353468 L -1.940427870626313 1.9684506484731026 L -1.7134306379563204 1.8375057854130383 L -1.6902996591522972 1.8241760688141095 L -1.6902996591522972 2.3938254281742113 L -1.6546230647257527 2.373438802787614 L -1.6546230647257527 2.346504934248014 L -1.6546230647257527 1.762232091677911 Z" fill="#c5cbea" transform="matrix(1,0,0,1,0,0)" fill-rule="nonzero"></path></g><g clip-path="url(#SvgjsClipPath1000d22818d3-9828-4f64-8cc8-8152dbea3493)"><path d=" M -1.6902996591522972 1.8241760688141095 L -1.7134306379563204 1.8375057854130383 L -1.7134306379563204 2.3804957115752825 L -1.6902996591522972 2.3938254281742113 Z" fill="#a1a9d6" transform="matrix(1,0,0,1,0,0)" fill-rule="nonzero"></path></g><g clip-path="url(#SvgjsClipPath1000d22818d3-9828-4f64-8cc8-8152dbea3493)"><path d=" M -1.7134306379563204 1.8375057854130383 L -1.940427870626313 1.9684506484731026 L -1.940427870626313 2.5114405746353468 L -1.7552624250476652 2.4046068165998156 L -1.7134306379563204 2.3804957115752825 Z" fill="#ed1c24" transform="matrix(1,0,0,1,0,0)" fill-rule="nonzero"></path></g><g clip-path="url(#SvgjsClipPath1000d22818d3-9828-4f64-8cc8-8152dbea3493)"><path d=" M -2.502628270710543 -0.6559353195630429 C -2.491650857040837 -0.6292758863651853 -2.4853780492295763 -0.5975197968206787 -2.4853780492295763 -0.5614511519059304 C -2.4853780492295763 -0.41129581492388023 -2.5908396305563945 -0.24506640792547474 -2.721000392640052 -0.18978728908874087 C -2.752364431696355 -0.17684962297801587 -2.7821602687998426 -0.17136091614316307 -2.8092117524859037 -0.1725370676077742 C -2.8092117524859037 -0.17249786255895394 -2.8091725474370834 -0.17245865751013367 -2.8091725474370834 -0.1724194524613134 C -2.8082316262653944 -0.17010635458091128 -2.8072122949960647 -0.1678324617493291 -2.8061537586779144 -0.16555856891774723 C -2.805879323336172 -0.16497049318544166 -2.8056048879944293 -0.16434321240431538 -2.805291247603866 -0.1637551366720098 C -2.802076433600595 -0.1569334581772639 -2.7985087741579404 -0.1505038301707219 -2.7945882692759025 -0.1443878425547428 C -2.79427462888534 -0.14387817692007776 -2.7939609884947765 -0.14336851128541273 -2.7936473481042134 -0.1428980506995683 C -2.792510401688422 -0.14113382350265147 -2.7912950451749907 -0.13944800640337496 -2.7901188937103796 -0.13776218930409867 C -2.7895700230268945 -0.13697808832769132 -2.789021152343409 -0.1362331924001039 -2.788433076611103 -0.13544909142369654 C -2.787256925146492 -0.1338416844220609 -2.7860415686330597 -0.13223427742042548 -2.7847870070708076 -0.1306660754676101 C -2.784277341436143 -0.13003879468648394 -2.7837284707526577 -0.129411513905358 -2.7832188051179925 -0.12878423312423182 C -2.78086650218877 -0.12596146960916466 -2.7784357891619065 -0.12321711619173803 -2.7759266660374022 -0.12059037792077298 C -2.775260180207456 -0.11988468704200617 -2.7745936943775096 -0.11917899616323901 -2.773927208547563 -0.11847330528447231 C -2.7727118520341314 -0.11721874372222019 -2.771418085423059 -0.11604259225760893 -2.770163523860807 -0.11486644079299746 C -2.769261807737938 -0.11400392971894913 -2.768320886566249 -0.11318062369372117 -2.7674191704433806 -0.11235731766849322 C -2.7662038139299483 -0.11125957630152283 -2.764949252367696 -0.1102010399833725 -2.7636946908054445 -0.10914250366522216 C -2.762557744389653 -0.10820158249353296 -2.7614207979738623 -0.10733907141948507 -2.7602838515580714 -0.10643735529661613 C -2.7586764445564356 -0.10518279373436412 -2.7570690375548006 -0.10400664226975254 -2.7554224255043445 -0.10283049080514128 C -2.7537366084050685 -0.10161513429170954 -2.7520115862569714 -0.10043898282709796 -2.7502473590600545 -0.09934124146012768 C -2.749188822741904 -0.09867475563018113 -2.7480910813749335 -0.09800826980023492 -2.7470325450567836 -0.09738098901910874 C -2.7455035481527887 -0.09647927289623992 -2.743974551248794 -0.09557755677337132 -2.7424063492959787 -0.0947150456993231 C -2.741387018026649 -0.09416617501583768 -2.7403284817084987 -0.09357809928353178 -2.739309150439169 -0.09302922860004648 C -2.73734889799815 -0.09200989733071674 -2.735349440508311 -0.09102977111020727 -2.733310777969651 -0.09012805498733845 C -2.7326834971885248 -0.08981441459677542 -2.7320562164073987 -0.0895007742062125 -2.7313897305774524 -0.08922633886446985 C -2.728645377160026 -0.08801098235103799 -2.725822613644959 -0.08691324098406739 -2.7229998501298915 -0.08585470466591705 C -2.7224901844952267 -0.08565867942181526 -2.721941313811741 -0.08550185922653386 -2.7213924431282557 -0.08530583398243208 C -2.718922525052572 -0.08444332290838341 -2.716452606976888 -0.08365922193197606 -2.713904278803563 -0.08291432600438864 C -2.7133162030712574 -0.08275750580910723 -2.712728127338952 -0.08256148056500545 -2.712100846557826 -0.08240466036972394 C -2.7091604678962975 -0.08158135434449598 -2.706180884185949 -0.0808364584169089 -2.7031228903779594 -0.08020917763578272 C -2.7031228903779594 -0.08020917763578272 -2.703083685329139 -0.08020917763578272 -2.703083685329139 -0.08020917763578272 C -2.696458032078495 -0.07883700092706936 -2.689636353583749 -0.07789607975538027 -2.682618649844901 -0.07742561916953583 C -2.6825402397472606 -0.07742561916953583 -2.6824226246007994 -0.07742561916953583 -2.6823442145031584 -0.07742561916953583 C -2.6613303083354354 -0.0760142374120023 -2.6387482002148976 -0.07868018073178795 -2.61514676082503 -0.08573708951945613 C -2.614872325483287 -0.08581549961709678 -2.6146370951903646 -0.08589390971473765 -2.614362659848622 -0.08597231981237852 C -2.6109126155524285 -0.08703085613052863 -2.607423366207415 -0.08820700759514011 -2.6039341168624013 -0.08942236410857163 C -2.6033852461789158 -0.08961838935267374 -2.60279717044661 -0.08981441459677542 -2.602248299763125 -0.0900104398408772 C -2.598445410027548 -0.09138261654959057 -2.5946425202919716 -0.09287240840476496 -2.5908004255075743 -0.09447981540640038 C -2.5908004255075743 -0.09447981540640038 -2.5908004255075743 -0.09447981540640038 -2.5908004255075743 -0.09447981540640038 C -2.460639663423917 -0.14936688375493068 -2.3551780820970984 -0.31559629075333595 -2.3551780820970984 -0.46575162773538603 C -2.3551780820970984 -0.46575162773538603 -2.3551780820970984 -0.4657908327842063 -2.3551780820970984 -0.4657908327842063 C -2.3551780820970984 -0.4700249780568072 -2.3552956972435597 -0.474141508182947 -2.3554525174388417 -0.47825803830908686 C -2.355491722487662 -0.4795518049201595 -2.3555701325853025 -0.4808063664824114 -2.355648542682943 -0.482100133093484 C -2.3558053628782245 -0.485001306706192 -2.3560013881223267 -0.48786327527007944 -2.356236618415249 -0.4906860387851468 C -2.35635423356171 -0.49205821549386 -2.356471848708171 -0.49343039220257323 -2.3565894638546325 -0.4947633638624661 C -2.3569031042451956 -0.49786056271927603 -2.357255949684579 -0.5008793514784452 -2.357648000172783 -0.5038981402376144 C -2.3577656153192432 -0.5047998563604831 -2.3578440254168838 -0.5057015724833518 -2.3579616405633455 -0.5065640835574001 C -2.3584713061980107 -0.510170948048875 -2.359059381930316 -0.5136994024427091 -2.359725867760263 -0.5171886517877228 C -2.360039508150826 -0.5187960587893583 -2.360353148541389 -0.5203250556933532 -2.360666788931952 -0.5219324626949887 C -2.361058839420156 -0.5239319201848279 -2.36149009495718 -0.5258921726258469 -2.3619605555430248 -0.5278132200180454 C -2.362391811080049 -0.5295774472149624 -2.3627838615682526 -0.5313808794606999 -2.3632543221540976 -0.5331059016087966 C -2.363646372642301 -0.5346741035616117 -2.364116833228146 -0.5362423055144269 -2.36454808876517 -0.5377713024184216 C -2.3665867513038297 -0.5450242364501916 -2.368939054233053 -0.5520027351402189 -2.371604997552838 -0.5586675934396835 C -2.3718402278457598 -0.5592164641231687 -2.372036253089862 -0.559765334806654 -2.372271483382784 -0.5603142054901393 C -2.373290814652114 -0.5627449185170028 -2.374310145921444 -0.5651756315438663 -2.3754078872884143 -0.567527934473089 C -2.3754470923372346 -0.5676063445707298 -2.375486297386055 -0.56764554961955 -2.375486297386055 -0.5677239597171909 C -2.400303093289354 -0.6216309018452116 -2.446055385262736 -0.6533477863408979 -2.502628270710543 -0.6559353195630429 Z" fill="#ee3968" transform="matrix(1,0,0,1,0,0)" fill-rule="nonzero"></path></g><g clip-path="url(#SvgjsClipPath1000d22818d3-9828-4f64-8cc8-8152dbea3493)"><path d=" M -3.0755708541715556 -0.29967904093226194 C -3.0546353581014736 -0.40737531004184224 -3.0107649084714696 -0.5196193648145863 -2.9438810951839045 -0.6250417410925844 C -2.943802685086263 -0.6251593562390456 -2.9437634800374433 -0.6252377663366864 -2.943685069939802 -0.6253553814831475 C -2.9010691818720504 -0.6925920402100969 -2.852650946578883 -0.7515172285871259 -2.8009394871848032 -0.8009940001984437 C -2.616362117338461 -0.9778087703783512 -2.390109780596056 -1.0347737063143614 -2.237602140684783 -0.923313752518025 L -2.3677629027684395 -1.018582021151545 C -2.5630040458939254 -1.1616804493459272 -2.878996739386177 -1.0283832833566398 -3.0738458320234594 -0.7210157006048712 C -3.268694924660741 -0.41364811785310274 -3.269086975148945 -0.048649113335377914 -3.0738458320234594 0.09444931485900443 L -2.947291934431277 0.18697323007509814 C -3.072669680558848 0.09237144727152424 -3.11536397872424 -0.09549914667573012 -3.0755708541715556 -0.29967904093226194 Z" fill="#ee3968" transform="matrix(1,0,0,1,0,0)" fill-rule="nonzero"></path></g><g clip-path="url(#SvgjsClipPath1000d22818d3-9828-4f64-8cc8-8152dbea3493)"><path d=" M -2.267201952544169 -0.06178280469020492 L -2.2379941911729864 -0.10784873705414977 C -2.0431450985357045 -0.4152163198059182 -2.0431450985357045 -0.7802153243236432 -2.2379941911729864 -0.9229217020298215 C -2.390227395742517 -1.0347345012655413 -2.616401322387281 -0.9778087703783516 -2.8009394871848032 -0.8009940001984439 C -2.8526117415300627 -0.7514780235383057 -2.9010299768232297 -0.692592040210097 -2.943685069939802 -0.6253553814831475 C -2.943763480037443 -0.6252377663366865 -2.943802685086263 -0.6251593562390456 -2.9438810951839036 -0.6250417410925846 C -3.010686498373829 -0.519580159765766 -3.054596153052653 -0.40737531004184224 -3.0755708541715556 -0.2996790409322623 C -3.1153639787242398 -0.09549914667573045 -3.072669680558848 0.09237144727152402 -2.9472919344312767 0.18701243512391796 C -2.946076577917845 0.187914151246787 -2.9449004264532332 0.1888550724184761 -2.943685069939802 0.1897567885413447 L -2.902558973727224 0.21990547108421565 L -2.5908396305563937 0.44851011075584357 L -2.267201952544169 -0.06178280469020492 Z M -2.5908396305563945 -0.6386850980820762 C -2.494748055897646 -0.6792231185623477 -2.412182223081929 -0.6476630542619428 -2.3754862973860544 -0.5678023698148317 C -2.375447092337234 -0.5677239597171909 -2.375407887288414 -0.5676847546683705 -2.375407887288414 -0.5676063445707298 C -2.3743101459214433 -0.565254041641507 -2.3732908146521137 -0.5628233286146436 -2.372271483382784 -0.5603926155877801 C -2.3720362530898615 -0.5598437449042949 -2.3718402278457598 -0.5592948742208096 -2.3716049975528377 -0.5587460035373243 C -2.368939054233052 -0.55208114523786 -2.3665867513038292 -0.5451026465478325 -2.3645480887651695 -0.5378497125160623 C -2.3641168332281453 -0.5362815105632472 -2.363685577691121 -0.5347525136592525 -2.3632543221540967 -0.5331843117064373 C -2.3628230666170724 -0.5314200845095203 -2.362391811080048 -0.5296558573126033 -2.3619605555430243 -0.5278916301156863 C -2.3614900949571798 -0.5259313776746672 -2.3610980444689758 -0.5239711252336483 -2.3606667889319515 -0.5220108727926295 C -2.360353148541388 -0.5204426708398142 -2.360000303102005 -0.5188744688869992 -2.3597258677602624 -0.5172670618853636 C -2.3590985869791368 -0.51377781254035 -2.3584713061980103 -0.5102493581465158 -2.357961640563345 -0.506642493655041 C -2.3578440254168838 -0.5057799825809925 -2.3577656153192432 -0.5048782664581241 -2.357648000172782 -0.5039765503352551 C -2.3572559496845784 -0.5009577615760861 -2.3569031042451947 -0.497938972816917 -2.3565894638546316 -0.494841773960107 C -2.356471848708171 -0.493508802300214 -2.35635423356171 -0.49213662559150084 -2.3562366184152483 -0.4907644488827876 C -2.3560013881223263 -0.4879416853677203 -2.3558053628782245 -0.48507971680383277 -2.3556485426829425 -0.48217854319112463 C -2.355570132585302 -0.48088477658005213 -2.3554917224876615 -0.4796302150178 -2.3554525174388408 -0.4783364484067276 C -2.3552956972435597 -0.47421991828058785 -2.3551780820970984 -0.4701033881544482 -2.3551780820970984 -0.46586924288184717 C -2.3551780820970984 -0.46586924288184717 -2.3551780820970984 -0.4658300378330268 -2.3551780820970984 -0.4658300378330268 C -2.3551780820970984 -0.3156747008509768 -2.4606396634239167 -0.14944529385257121 -2.590800425507574 -0.09455822550404125 C -2.590800425507574 -0.09455822550404125 -2.590800425507574 -0.09455822550404125 -2.590800425507574 -0.09455822550404125 C -2.594642520291971 -0.09295081850240561 -2.598484615076368 -0.0914610266472311 -2.6022482997631244 -0.09008884993851818 C -2.6027971704466095 -0.08989282469441606 -2.6033852461789158 -0.08969679945031395 -2.6039341168624004 -0.0895007742062125 C -2.6074233662074144 -0.08824621264396038 -2.610912615552428 -0.08710926622816917 -2.614362659848622 -0.08605072991001916 C -2.614637095190364 -0.08597231981237852 -2.6148723254832866 -0.08589390971473765 -2.615146760825029 -0.08581549961709678 C -2.638748200214897 -0.07871938578060822 -2.661330308335435 -0.07609264750964284 -2.682344214503158 -0.07750402926717637 C -2.6824226246007985 -0.07750402926717637 -2.6825402397472597 -0.07750402926717637 -2.6826186498449007 -0.07750402926717637 C -2.6895971485349284 -0.07797448985302113 -2.6964580320784943 -0.07891541102471034 -2.7030836853291387 -0.08028758773342326 C -2.7030836853291387 -0.08028758773342326 -2.7031228903779585 -0.08028758773342326 -2.7031228903779585 -0.08028758773342326 C -2.706141679137128 -0.08091486851454954 -2.7091604678962975 -0.08165976444213663 -2.7121008465578256 -0.08248307046736458 C -2.7126889222901314 -0.08263989066264599 -2.713276998022437 -0.08283591590674777 -2.7139042788035628 -0.08299273610202962 C -2.716413401928067 -0.0837376320296167 -2.7189225250525713 -0.08452173300602406 -2.7213924431282557 -0.08538424408007261 C -2.7219021087629205 -0.0855802693241744 -2.722450979446405 -0.08573708951945591 -2.722999850129891 -0.08593311476355792 C -2.7258618186937786 -0.08695244603288765 -2.728645377160025 -0.08808939244867864 -2.731389730577452 -0.08930474896211049 C -2.7320562164073987 -0.08957918430385314 -2.732644292139704 -0.08989282469441606 -2.733310777969651 -0.09020646508497931 C -2.73531023545949 -0.09114738625666852 -2.737309692949329 -0.09208830742835761 -2.7393091504391682 -0.09310763869768734 C -2.7403676867573186 -0.09365650938117265 -2.741387018026648 -0.09420538006465773 -2.7424063492959783 -0.09479345579696363 C -2.7439745512487934 -0.09565596687101185 -2.7455035481527883 -0.09655768299388046 -2.7470325450567827 -0.09745939911674928 C -2.748130286423754 -0.09812588494669583 -2.749188822741904 -0.09875316572782167 -2.750247359060054 -0.09941965155776822 C -2.7520115862569714 -0.10055659797355943 -2.7536974033562474 -0.10173274943817068 -2.755422425504344 -0.10290890090278193 C -2.7570690375548 -0.1040850523673934 -2.7586764445564356 -0.10530040888082526 -2.7602838515580714 -0.10651576539425678 C -2.7614207979738623 -0.1074174815171256 -2.762557744389653 -0.10827999259117393 -2.763694690805444 -0.10922091376286303 C -2.764949252367696 -0.11027945008101314 -2.7662038139299483 -0.11133798639916348 -2.7674191704433797 -0.11243572776613409 C -2.7683600916150692 -0.11325903379136171 -2.7692618077379376 -0.11408233981659 -2.7701635238608064 -0.11494485089063833 C -2.7714180854230586 -0.11612100235524947 -2.7727118520341305 -0.11733635886868132 -2.773927208547563 -0.11855171538211318 C -2.774593694377509 -0.11921820121205973 -2.7752601802074555 -0.1199630971396467 -2.775926666037402 -0.12066878801841352 C -2.778435789161906 -0.12329552628937901 -2.7808665021887697 -0.12603987970680552 -2.7832188051179925 -0.12886264322187269 C -2.7837284707526573 -0.12948992400299897 -2.7842773414361424 -0.1301172047841248 -2.7847870070708076 -0.13074448556525076 C -2.7860415686330597 -0.1323126875180658 -2.787217720097671 -0.13388088947088117 -2.7884330766111027 -0.13552750152133708 C -2.788981947294588 -0.13627239744892417 -2.7895700230268936 -0.13705649842533185 -2.790118893710379 -0.13784059940173932 C -2.7913342502238105 -0.13952641650101583 -2.792510401688422 -0.14125143864911238 -2.793647348104213 -0.14297646079720894 C -2.793960988494776 -0.14348612643187397 -2.794274628885339 -0.143995792066539 -2.794588269275902 -0.14446625265238333 C -2.7984695691091197 -0.15054303521954215 -2.8020372285517743 -0.15701186827490454 -2.8052912476038654 -0.16383354676965034 C -2.805565682945608 -0.16442162250195602 -2.805879323336171 -0.1650489032830822 -2.806153758677914 -0.16563697901538776 C -2.807173089947244 -0.16787166679814935 -2.8081924212165736 -0.1701455596297312 -2.809172547437083 -0.17249786255895394 C -2.809172547437083 -0.1725370676077742 -2.8092117524859033 -0.17257627265659492 -2.8092117524859033 -0.1726154777054152 C -2.8203067813020706 -0.19947093614737454 -2.82646197396687 -0.23134464083834239 -2.82646197396687 -0.2674916958507312 C -2.82646197396687 -0.4175686227351407 -2.7210003926400512 -0.5837980297335462 -2.5908396305563945 -0.6386850980820762 Z" fill="#ed1c24" transform="matrix(1,0,0,1,0,0)" fill-rule="nonzero"></path></g></g><g><path d=" M 1.3185 0.016499999999999737 L 1.3185 1.0739999999999998 L 1.0245 1.0739999999999998 L 1.0245 0.4904999999999998 L 0.8250000000000001 1.0739999999999998 L 0.579 1.0739999999999998 L 0.378 0.4859999999999999 L 0.378 1.0739999999999998 L 0.084 1.0739999999999998 L 0.084 0.016499999999999737 L 0.4395 0.016499999999999737 L 0.705 0.7034999999999998 L 0.9645 0.016499999999999737 L 1.3185 0.016499999999999737 M 1.778996337890625 0.2519999999999998 L 1.778996337890625 0.4244999999999999 L 2.116496337890625 0.4244999999999999 L 2.116496337890625 0.6479999999999999 L 1.778996337890625 0.6479999999999999 L 1.778996337890625 0.8384999999999998 L 2.161496337890625 0.8384999999999998 L 2.161496337890625 1.0739999999999998 L 1.484996337890625 1.0739999999999998 L 1.484996337890625 0.016499999999999737 L 2.161496337890625 0.016499999999999737 L 2.161496337890625 0.2519999999999998 L 1.778996337890625 0.2519999999999998 M 2.401456787109375 0.9967499999999998 Q 2.282956787109375 0.9089999999999998 2.273956787109375 0.7454999999999998 L 2.587456787109375 0.7454999999999998 Q 2.5919567871093747 0.8009999999999998 2.620456787109375 0.8264999999999998 Q 2.648956787109375 0.8519999999999999 2.693956787109375 0.8519999999999999 Q 2.734456787109375 0.8519999999999999 2.760706787109375 0.8317499999999999 Q 2.786956787109375 0.8114999999999999 2.786956787109375 0.7754999999999999 Q 2.786956787109375 0.7289999999999999 2.743456787109375 0.7034999999999998 Q 2.699956787109375 0.6779999999999998 2.602456787109375 0.6464999999999999 Q 2.4989567871093747 0.6119999999999999 2.435206787109375 0.5797499999999998 Q 2.371456787109375 0.5474999999999999 2.324206787109375 0.48524999999999985 Q 2.2769567871093748 0.4229999999999998 2.2769567871093748 0.3224999999999998 Q 2.2769567871093748 0.2204999999999998 2.327956787109375 0.14774999999999983 Q 2.378956787109375 0.07499999999999984 2.468956787109375 0.03749999999999987 Q 2.558956787109375 -2.220446049250313e-16 2.672956787109375 -2.220446049250313e-16 Q 2.857456787109375 -2.220446049250313e-16 2.9677067871093747 0.08624999999999983 Q 3.077956787109375 0.17249999999999988 3.0854567871093748 0.3284999999999998 L 2.765956787109375 0.3284999999999998 Q 2.764456787109375 0.28049999999999986 2.736706787109375 0.25649999999999984 Q 2.7089567871093747 0.23249999999999982 2.665456787109375 0.23249999999999982 Q 2.632456787109375 0.23249999999999982 2.611456787109375 0.2519999999999998 Q 2.5904567871093747 0.27149999999999985 2.5904567871093747 0.3074999999999998 Q 2.5904567871093747 0.3374999999999998 2.6137067871093747 0.35924999999999985 Q 2.636956787109375 0.3809999999999998 2.671456787109375 0.3967499999999998 Q 2.705956787109375 0.41249999999999987 2.773456787109375 0.4364999999999998 Q 2.8739567871093747 0.47099999999999986 2.939206787109375 0.5047499999999998 Q 3.004456787109375 0.5384999999999999 3.051706787109375 0.5992499999999998 Q 3.098956787109375 0.6599999999999998 3.098956787109375 0.7529999999999999 Q 3.098956787109375 0.8474999999999998 3.051706787109375 0.9224999999999999 Q 3.004456787109375 0.9974999999999998 2.915206787109375 1.041 Q 2.8259567871093747 1.0844999999999998 2.704456787109375 1.0844999999999998 Q 2.5199567871093747 1.0844999999999998 2.401456787109375 0.9967499999999998 M 3.329949462890625 0.9967499999999998 Q 3.211449462890625 0.9089999999999998 3.202449462890625 0.7454999999999998 L 3.515949462890625 0.7454999999999998 Q 3.5204494628906247 0.8009999999999998 3.548949462890625 0.8264999999999998 Q 3.577449462890625 0.8519999999999999 3.622449462890625 0.8519999999999999 Q 3.6629494628906247 0.8519999999999999 3.689199462890625 0.8317499999999999 Q 3.715449462890625 0.8114999999999999 3.715449462890625 0.7754999999999999 Q 3.715449462890625 0.7289999999999999 3.671949462890625 0.7034999999999998 Q 3.6284494628906248 0.6779999999999998 3.530949462890625 0.6464999999999999 Q 3.4274494628906247 0.6119999999999999 3.363699462890625 0.5797499999999998 Q 3.2999494628906247 0.5474999999999999 3.2526994628906247 0.48524999999999985 Q 3.2054494628906247 0.4229999999999998 3.2054494628906247 0.3224999999999998 Q 3.2054494628906247 0.2204999999999998 3.256449462890625 0.14774999999999983 Q 3.307449462890625 0.07499999999999984 3.397449462890625 0.03749999999999987 Q 3.4874494628906247 -2.220446049250313e-16 3.601449462890625 -2.220446049250313e-16 Q 3.785949462890625 -2.220446049250313e-16 3.8961994628906247 0.08624999999999983 Q 4.006449462890625 0.17249999999999988 4.013949462890625 0.3284999999999998 L 3.694449462890625 0.3284999999999998 Q 3.692949462890625 0.28049999999999986 3.665199462890625 0.25649999999999984 Q 3.6374494628906247 0.23249999999999982 3.593949462890625 0.23249999999999982 Q 3.560949462890625 0.23249999999999982 3.539949462890625 0.2519999999999998 Q 3.5189494628906246 0.27149999999999985 3.5189494628906246 0.3074999999999998 Q 3.5189494628906246 0.3374999999999998 3.5421994628906246 0.35924999999999985 Q 3.565449462890625 0.3809999999999998 3.599949462890625 0.3967499999999998 Q 3.634449462890625 0.41249999999999987 3.701949462890625 0.4364999999999998 Q 3.8024494628906247 0.47099999999999986 3.867699462890625 0.5047499999999998 Q 3.9329494628906247 0.5384999999999999 3.9801994628906248 0.5992499999999998 Q 4.027449462890625 0.6599999999999998 4.027449462890625 0.7529999999999999 Q 4.027449462890625 0.8474999999999998 3.9801994628906248 0.9224999999999999 Q 3.9329494628906247 0.9974999999999998 3.843699462890625 1.041 Q 3.7544494628906246 1.0844999999999998 3.632949462890625 1.0844999999999998 Q 3.4484494628906246 1.0844999999999998 3.329949462890625 0.9967499999999998 M 4.456442138671875 0.2519999999999998 L 4.456442138671875 0.4244999999999999 L 4.793942138671875 0.4244999999999999 L 4.793942138671875 0.6479999999999999 L 4.456442138671875 0.6479999999999999 L 4.456442138671875 0.8384999999999998 L 4.838942138671875 0.8384999999999998 L 4.838942138671875 1.0739999999999998 L 4.162442138671874 1.0739999999999998 L 4.162442138671874 0.016499999999999737 L 4.838942138671875 0.016499999999999737 L 4.838942138671875 0.2519999999999998 L 4.456442138671875 0.2519999999999998 M 5.518402587890625 1.0739999999999998 L 5.308402587890625 0.6839999999999998 L 5.276902587890625 0.6839999999999998 L 5.276902587890625 1.0739999999999998 L 4.982902587890624 1.0739999999999998 L 4.982902587890624 0.016499999999999737 L 5.446402587890625 0.016499999999999737 Q 5.5739025878906245 0.016499999999999737 5.662402587890625 0.06074999999999986 Q 5.750902587890625 0.10499999999999987 5.795902587890625 0.1822499999999998 Q 5.840902587890625 0.25949999999999984 5.840902587890625 0.3554999999999998 Q 5.840902587890625 0.4634999999999998 5.781652587890624 0.5452499999999998 Q 5.722402587890625 0.6269999999999998 5.608402587890625 0.6614999999999998 L 5.846902587890625 1.0739999999999998 L 5.518402587890625 1.0739999999999998 M 5.276902587890625 0.4829999999999999 L 5.422402587890625 0.4829999999999999 Q 5.482402587890625 0.4829999999999999 5.512402587890625 0.4544999999999998 Q 5.542402587890624 0.4259999999999998 5.542402587890624 0.3719999999999998 Q 5.542402587890624 0.32099999999999984 5.511652587890625 0.29174999999999984 Q 5.480902587890625 0.26249999999999984 5.422402587890625 0.26249999999999984 L 5.276902587890625 0.26249999999999984 L 5.276902587890625 0.4829999999999999 M 6.795668701171874 0.6232499999999999 Q 6.850418701171875 0.6944999999999999 6.850418701171875 0.7859999999999998 Q 6.850418701171875 0.9209999999999998 6.757418701171875 0.9974999999999998 Q 6.664418701171875 1.0739999999999998 6.496418701171875 1.0739999999999998 L 5.972918701171874 1.0739999999999998 L 5.972918701171874 0.016499999999999737 L 6.479918701171875 0.016499999999999737 Q 6.641918701171875 0.016499999999999737 6.734168701171875 0.0884999999999998 Q 6.826418701171875 0.16049999999999986 6.826418701171875 0.2909999999999998 Q 6.826418701171875 0.3839999999999998 6.777668701171875 0.4462499999999998 Q 6.7289187011718745 0.5084999999999998 6.647918701171875 0.5309999999999998 Q 6.740918701171875 0.5519999999999998 6.795668701171874 0.6232499999999999 M 6.266918701171875 0.4364999999999998 L 6.415418701171875 0.4364999999999998 Q 6.526418701171875 0.4364999999999998 6.526418701171875 0.34499999999999986 Q 6.526418701171875 0.25049999999999983 6.415418701171875 0.25049999999999983 L 6.266918701171875 0.25049999999999983 L 6.266918701171875 0.4364999999999998 M 6.548918701171875 0.7439999999999998 Q 6.548918701171875 0.6959999999999998 6.519668701171875 0.6704999999999999 Q 6.490418701171874 0.6449999999999998 6.436418701171875 0.6449999999999998 L 6.266918701171875 0.6449999999999998 L 6.266918701171875 0.8369999999999999 L 6.437918701171875 0.8369999999999999 Q 6.548918701171875 0.8369999999999999 6.548918701171875 0.7439999999999998 M 7.271949462890625 0.016499999999999737 L 7.271949462890625 1.0739999999999998 L 6.977949462890624 1.0739999999999998 L 6.977949462890624 0.016499999999999737 L 7.271949462890625 0.016499999999999737 M 8.234924560546874 0.016499999999999737 L 8.234924560546874 0.25049999999999983 L 7.952924560546874 0.25049999999999983 L 7.952924560546874 1.0739999999999998 L 7.6589245605468745 1.0739999999999998 L 7.6589245605468745 0.25049999999999983 L 7.379924560546875 0.25049999999999983 L 7.379924560546875 0.016499999999999737 L 8.234924560546874 0.016499999999999737" fill="#9e0f11" fill-rule="nonzero"></path></g><g><path d=" M 0.38925 1.4342249999999999 L 0.38925 1.5369749999999998 L 0.17475000000000002 1.5369749999999998 L 0.17475000000000002 1.6479749999999997 L 0.33525 1.6479749999999997 L 0.33525 1.7477249999999998 L 0.17475000000000002 1.7477249999999998 L 0.17475000000000002 1.9607249999999998 L 0.0465 1.9607249999999998 L 0.0465 1.4342249999999999 L 0.38925 1.4342249999999999 M 0.584997802734375 1.4342249999999999 L 0.584997802734375 1.9607249999999998 L 0.456747802734375 1.9607249999999998 L 0.456747802734375 1.4342249999999999 L 0.584997802734375 1.4342249999999999 M 1.1489849853515626 1.9607249999999998 L 1.0207349853515626 1.9607249999999998 L 0.8062349853515625 1.6359749999999997 L 0.8062349853515625 1.9607249999999998 L 0.6779849853515625 1.9607249999999998 L 0.6779849853515625 1.4342249999999999 L 0.8062349853515625 1.4342249999999999 L 1.0207349853515626 1.7604749999999998 L 1.0207349853515626 1.4342249999999999 L 1.1489849853515626 1.4342249999999999 L 1.1489849853515626 1.9607249999999998 M 1.58474560546875 1.4672249999999998 Q 1.64699560546875 1.500225 1.68112060546875 1.55985 Q 1.7152456054687502 1.6194749999999998 1.7152456054687502 1.6974749999999998 Q 1.7152456054687502 1.7747249999999999 1.68112060546875 1.8347249999999997 Q 1.64699560546875 1.8947249999999998 1.58437060546875 1.927725 Q 1.52174560546875 1.9607249999999998 1.43924560546875 1.9607249999999998 L 1.24199560546875 1.9607249999999998 L 1.24199560546875 1.4342249999999999 L 1.43924560546875 1.4342249999999999 Q 1.52249560546875 1.4342249999999999 1.58474560546875 1.4672249999999998 M 1.54424560546875 1.809975 Q 1.58474560546875 1.770225 1.58474560546875 1.6974749999999998 Q 1.58474560546875 1.6247249999999998 1.54424560546875 1.5842249999999998 Q 1.5037456054687501 1.5437249999999998 1.43099560546875 1.5437249999999998 L 1.37024560546875 1.5437249999999998 L 1.37024560546875 1.8497249999999998 L 1.43099560546875 1.8497249999999998 Q 1.5037456054687501 1.8497249999999998 1.54424560546875 1.809975 M 2.32496923828125 1.4342249999999999 L 2.32496923828125 1.5369749999999998 L 2.18546923828125 1.5369749999999998 L 2.18546923828125 1.9607249999999998 L 2.05721923828125 1.9607249999999998 L 2.05721923828125 1.5369749999999998 L 1.91771923828125 1.5369749999999998 L 1.91771923828125 1.4342249999999999 L 2.32496923828125 1.4342249999999999 M 2.8454718017578124 1.4342249999999999 L 2.8454718017578124 1.9607249999999998 L 2.7172218017578125 1.9607249999999998 L 2.7172218017578125 1.7439749999999998 L 2.5177218017578125 1.7439749999999998 L 2.5177218017578125 1.9607249999999998 L 2.3894718017578125 1.9607249999999998 L 2.3894718017578125 1.4342249999999999 L 2.5177218017578125 1.4342249999999999 L 2.5177218017578125 1.640475 L 2.7172218017578125 1.640475 L 2.7172218017578125 1.4342249999999999 L 2.8454718017578124 1.4342249999999999 M 3.0659853515625 1.5369749999999998 L 3.0659853515625 1.6434749999999998 L 3.2377353515625 1.6434749999999998 L 3.2377353515625 1.7424749999999998 L 3.0659853515625 1.7424749999999998 L 3.0659853515625 1.8579749999999997 L 3.2602353515624998 1.8579749999999997 L 3.2602353515624998 1.9607249999999998 L 2.9377353515625 1.9607249999999998 L 2.9377353515625 1.4342249999999999 L 3.2602353515624998 1.4342249999999999 L 3.2602353515624998 1.5369749999999998 L 3.0659853515625 1.5369749999999998 M 3.8827283935546877 1.68735 Q 3.8617283935546873 1.7252249999999998 3.8182283935546875 1.7484749999999998 Q 3.7747283935546876 1.7717249999999998 3.7102283935546874 1.7717249999999998 L 3.6307283935546875 1.7717249999999998 L 3.6307283935546875 1.9607249999999998 L 3.5024783935546875 1.9607249999999998 L 3.5024783935546875 1.4342249999999999 L 3.7102283935546874 1.4342249999999999 Q 3.7732283935546875 1.4342249999999999 3.8167283935546874 1.4559749999999998 Q 3.8602283935546877 1.477725 3.8819783935546877 1.5159749999999999 Q 3.9037283935546876 1.5542249999999997 3.9037283935546876 1.6037249999999998 Q 3.9037283935546876 1.6494749999999998 3.8827283935546877 1.68735 M 3.7552283935546873 1.652475 Q 3.7732283935546875 1.6352249999999997 3.7732283935546875 1.6037249999999998 Q 3.7732283935546875 1.5722249999999998 3.7552283935546873 1.5549749999999998 Q 3.7372283935546875 1.5377249999999998 3.7004783935546874 1.5377249999999998 L 3.6307283935546875 1.5377249999999998 L 3.6307283935546875 1.669725 L 3.7004783935546874 1.669725 Q 3.7372283935546875 1.669725 3.7552283935546873 1.652475 M 4.098745971679688 1.5369749999999998 L 4.098745971679688 1.6434749999999998 L 4.270495971679687 1.6434749999999998 L 4.270495971679687 1.7424749999999998 L 4.098745971679688 1.7424749999999998 L 4.098745971679688 1.8579749999999997 L 4.292995971679687 1.8579749999999997 L 4.292995971679687 1.9607249999999998 L 3.9704959716796875 1.9607249999999998 L 3.9704959716796875 1.4342249999999999 L 4.292995971679687 1.4342249999999999 L 4.292995971679687 1.5369749999999998 L 4.098745971679688 1.5369749999999998 M 4.644757690429688 1.9607249999999998 L 4.535257690429687 1.7619749999999998 L 4.504507690429688 1.7619749999999998 L 4.504507690429688 1.9607249999999998 L 4.3762576904296875 1.9607249999999998 L 4.3762576904296875 1.4342249999999999 L 4.591507690429688 1.4342249999999999 Q 4.653757690429687 1.4342249999999999 4.697632690429687 1.4559749999999998 Q 4.741507690429687 1.477725 4.763257690429688 1.5155999999999998 Q 4.785007690429688 1.5534749999999997 4.785007690429688 1.5999749999999997 Q 4.785007690429688 1.652475 4.755382690429688 1.6937249999999997 Q 4.725757690429687 1.734975 4.668007690429688 1.752225 L 4.789507690429687 1.9607249999999998 L 4.644757690429688 1.9607249999999998 M 4.504507690429688 1.6712249999999997 L 4.584007690429687 1.6712249999999997 Q 4.619257690429688 1.6712249999999997 4.636882690429688 1.6539749999999998 Q 4.654507690429687 1.6367249999999998 4.654507690429687 1.605225 Q 4.654507690429687 1.5752249999999999 4.636882690429688 1.5579749999999999 Q 4.619257690429688 1.540725 4.584007690429687 1.540725 L 4.504507690429688 1.540725 L 4.504507690429688 1.6712249999999997 M 5.207990844726562 1.4342249999999999 L 5.207990844726562 1.5369749999999998 L 4.993490844726563 1.5369749999999998 L 4.993490844726563 1.6479749999999997 L 5.153990844726563 1.6479749999999997 L 5.153990844726563 1.7477249999999998 L 4.993490844726563 1.7477249999999998 L 4.993490844726563 1.9607249999999998 L 4.8652408447265625 1.9607249999999998 L 4.8652408447265625 1.4342249999999999 L 5.207990844726562 1.4342249999999999 M 5.403738647460938 1.5369749999999998 L 5.403738647460938 1.6434749999999998 L 5.575488647460937 1.6434749999999998 L 5.575488647460937 1.7424749999999998 L 5.403738647460938 1.7424749999999998 L 5.403738647460938 1.8579749999999997 L 5.597988647460937 1.8579749999999997 L 5.597988647460937 1.9607249999999998 L 5.2754886474609375 1.9607249999999998 L 5.2754886474609375 1.4342249999999999 L 5.597988647460937 1.4342249999999999 L 5.597988647460937 1.5369749999999998 L 5.403738647460938 1.5369749999999998 M 5.693250366210938 1.5575999999999999 Q 5.727000366210937 1.4964749999999998 5.787375366210938 1.4623499999999998 Q 5.847750366210938 1.4282249999999999 5.924250366210938 1.4282249999999999 Q 6.018000366210938 1.4282249999999999 6.084750366210938 1.477725 Q 6.1515003662109375 1.5272249999999998 6.1740003662109375 1.6127249999999997 L 6.0330003662109375 1.6127249999999997 Q 6.017250366210938 1.5797249999999998 5.988375366210938 1.5624749999999998 Q 5.959500366210937 1.5452249999999998 5.922750366210938 1.5452249999999998 Q 5.863500366210937 1.5452249999999998 5.826750366210938 1.5864749999999999 Q 5.790000366210937 1.6277249999999999 5.790000366210937 1.6967249999999998 Q 5.790000366210937 1.7657249999999998 5.826750366210938 1.8069749999999998 Q 5.863500366210937 1.8482249999999998 5.922750366210938 1.8482249999999998 Q 5.959500366210937 1.8482249999999998 5.988375366210938 1.8309749999999998 Q 6.017250366210938 1.8137249999999998 6.0330003662109375 1.780725 L 6.1740003662109375 1.780725 Q 6.1515003662109375 1.8662249999999998 6.084750366210938 1.9153499999999999 Q 6.018000366210938 1.9644749999999997 5.924250366210938 1.9644749999999997 Q 5.847750366210938 1.9644749999999997 5.787375366210938 1.9303499999999998 Q 5.727000366210937 1.8962249999999998 5.693250366210938 1.8354749999999997 Q 5.6595003662109375 1.7747249999999999 5.6595003662109375 1.6967249999999998 Q 5.6595003662109375 1.6187249999999997 5.693250366210938 1.5575999999999999 M 6.631518310546875 1.4342249999999999 L 6.631518310546875 1.5369749999999998 L 6.492018310546875 1.5369749999999998 L 6.492018310546875 1.9607249999999998 L 6.363768310546875 1.9607249999999998 L 6.363768310546875 1.5369749999999998 L 6.224268310546875 1.5369749999999998 L 6.224268310546875 1.4342249999999999 L 6.631518310546875 1.4342249999999999 M 7.451252197265625 1.4342249999999999 L 7.451252197265625 1.9607249999999998 L 7.323002197265625 1.9607249999999998 L 7.323002197265625 1.6449749999999999 L 7.205252197265625 1.9607249999999998 L 7.1017521972656255 1.9607249999999998 L 6.983252197265625 1.6442249999999998 L 6.983252197265625 1.9607249999999998 L 6.855002197265625 1.9607249999999998 L 6.855002197265625 1.4342249999999999 L 7.006502197265625 1.4342249999999999 L 7.154252197265625 1.798725 L 7.300502197265625 1.4342249999999999 L 7.451252197265625 1.4342249999999999 M 7.671774536132813 1.5369749999999998 L 7.671774536132813 1.6434749999999998 L 7.843524536132812 1.6434749999999998 L 7.843524536132812 1.7424749999999998 L 7.671774536132813 1.7424749999999998 L 7.671774536132813 1.8579749999999997 L 7.866024536132812 1.8579749999999997 L 7.866024536132812 1.9607249999999998 L 7.5435245361328125 1.9607249999999998 L 7.5435245361328125 1.4342249999999999 L 7.866024536132812 1.4342249999999999 L 7.866024536132812 1.5369749999999998 L 7.671774536132813 1.5369749999999998 M 8.036286254882812 1.9472249999999998 Q 7.990536254882812 1.9284749999999997 7.963161254882812 1.8917249999999999 Q 7.935786254882813 1.8549749999999998 7.934286254882813 1.8032249999999999 L 8.070786254882812 1.8032249999999999 Q 8.073786254882812 1.8324749999999999 8.091036254882813 1.8478499999999998 Q 8.108286254882813 1.863225 8.136036254882812 1.863225 Q 8.164536254882812 1.863225 8.181036254882812 1.8500999999999999 Q 8.197536254882813 1.8369749999999998 8.197536254882813 1.8137249999999998 Q 8.197536254882813 1.7942249999999997 8.184411254882813 1.781475 Q 8.171286254882812 1.7687249999999999 8.152161254882813 1.7604749999999998 Q 8.133036254882812 1.752225 8.097786254882813 1.7417249999999997 Q 8.046786254882813 1.7259749999999998 8.014536254882813 1.7102249999999999 Q 7.982286254882813 1.6944749999999997 7.959036254882813 1.663725 Q 7.935786254882813 1.6329749999999998 7.935786254882813 1.5834749999999997 Q 7.935786254882813 1.5099749999999998 7.989036254882812 1.4683499999999998 Q 8.042286254882812 1.4267249999999998 8.127786254882812 1.4267249999999998 Q 8.214786254882812 1.4267249999999998 8.268036254882812 1.4683499999999998 Q 8.321286254882812 1.5099749999999998 8.325036254882813 1.5842249999999998 L 8.186286254882813 1.5842249999999998 Q 8.184786254882813 1.558725 8.167536254882812 1.5440999999999998 Q 8.150286254882813 1.5294749999999997 8.123286254882812 1.5294749999999997 Q 8.100036254882813 1.5294749999999997 8.085786254882812 1.5418499999999997 Q 8.071536254882812 1.5542249999999997 8.071536254882812 1.5774749999999997 Q 8.071536254882812 1.6029749999999998 8.095536254882813 1.617225 Q 8.119536254882812 1.6314749999999998 8.170536254882812 1.6479749999999997 Q 8.221536254882812 1.665225 8.253411254882813 1.6809749999999999 Q 8.285286254882813 1.6967249999999998 8.308536254882812 1.7267249999999998 Q 8.331786254882813 1.7567249999999999 8.331786254882813 1.8039749999999999 Q 8.331786254882813 1.8489749999999998 8.308911254882812 1.8857249999999999 Q 8.286036254882813 1.922475 8.242536254882813 1.9442249999999999 Q 8.199036254882813 1.9659749999999998 8.139786254882813 1.9659749999999998 Q 8.082036254882812 1.9659749999999998 8.036286254882812 1.9472249999999998 M 8.497528930664062 1.9472249999999998 Q 8.451778930664062 1.9284749999999997 8.424403930664063 1.8917249999999999 Q 8.397028930664062 1.8549749999999998 8.395528930664062 1.8032249999999999 L 8.532028930664062 1.8032249999999999 Q 8.535028930664062 1.8324749999999999 8.552278930664063 1.8478499999999998 Q 8.569528930664063 1.863225 8.597278930664062 1.863225 Q 8.625778930664062 1.863225 8.642278930664062 1.8500999999999999 Q 8.658778930664063 1.8369749999999998 8.658778930664063 1.8137249999999998 Q 8.658778930664063 1.7942249999999997 8.645653930664063 1.781475 Q 8.632528930664062 1.7687249999999999 8.613403930664063 1.7604749999999998 Q 8.594278930664062 1.752225 8.559028930664063 1.7417249999999997 Q 8.508028930664063 1.7259749999999998 8.475778930664063 1.7102249999999999 Q 8.443528930664062 1.6944749999999997 8.420278930664063 1.663725 Q 8.397028930664062 1.6329749999999998 8.397028930664062 1.5834749999999997 Q 8.397028930664062 1.5099749999999998 8.450278930664062 1.4683499999999998 Q 8.503528930664062 1.4267249999999998 8.589028930664062 1.4267249999999998 Q 8.676028930664062 1.4267249999999998 8.729278930664062 1.4683499999999998 Q 8.782528930664062 1.5099749999999998 8.786278930664063 1.5842249999999998 L 8.647528930664063 1.5842249999999998 Q 8.646028930664063 1.558725 8.628778930664062 1.5440999999999998 Q 8.611528930664063 1.5294749999999997 8.584528930664062 1.5294749999999997 Q 8.561278930664063 1.5294749999999997 8.547028930664062 1.5418499999999997 Q 8.532778930664062 1.5542249999999997 8.532778930664062 1.5774749999999997 Q 8.532778930664062 1.6029749999999998 8.556778930664063 1.617225 Q 8.580778930664062 1.6314749999999998 8.631778930664062 1.6479749999999997 Q 8.682778930664062 1.665225 8.714653930664063 1.6809749999999999 Q 8.746528930664063 1.6967249999999998 8.769778930664062 1.7267249999999998 Q 8.793028930664063 1.7567249999999999 8.793028930664063 1.8039749999999999 Q 8.793028930664063 1.8489749999999998 8.770153930664062 1.8857249999999999 Q 8.747278930664063 1.922475 8.703778930664063 1.9442249999999999 Q 8.660278930664063 1.9659749999999998 8.601028930664063 1.9659749999999998 Q 8.543278930664062 1.9659749999999998 8.497528930664062 1.9472249999999998 M 9.2992529296875 1.9607249999999998 L 9.1897529296875 1.7619749999999998 L 9.1590029296875 1.7619749999999998 L 9.1590029296875 1.9607249999999998 L 9.0307529296875 1.9607249999999998 L 9.0307529296875 1.4342249999999999 L 9.2460029296875 1.4342249999999999 Q 9.3082529296875 1.4342249999999999 9.3521279296875 1.4559749999999998 Q 9.3960029296875 1.477725 9.4177529296875 1.5155999999999998 Q 9.4395029296875 1.5534749999999997 9.4395029296875 1.5999749999999997 Q 9.4395029296875 1.652475 9.4098779296875 1.6937249999999997 Q 9.3802529296875 1.734975 9.3225029296875 1.752225 L 9.4440029296875 1.9607249999999998 L 9.2992529296875 1.9607249999999998 M 9.1590029296875 1.6712249999999997 L 9.2385029296875 1.6712249999999997 Q 9.2737529296875 1.6712249999999997 9.2913779296875 1.6539749999999998 Q 9.3090029296875 1.6367249999999998 9.3090029296875 1.605225 Q 9.3090029296875 1.5752249999999999 9.2913779296875 1.5579749999999999 Q 9.2737529296875 1.540725 9.2385029296875 1.540725 L 9.1590029296875 1.540725 L 9.1590029296875 1.6712249999999997 M 9.632611083984376 1.9314749999999998 Q 9.570736083984375 1.8969749999999999 9.534361083984376 1.8350999999999997 Q 9.497986083984374 1.7732249999999998 9.497986083984374 1.6959749999999998 Q 9.497986083984374 1.6187249999999997 9.534361083984376 1.5572249999999999 Q 9.570736083984375 1.4957249999999997 9.632611083984376 1.4612249999999998 Q 9.694486083984375 1.4267249999999998 9.768736083984376 1.4267249999999998 Q 9.842986083984375 1.4267249999999998 9.904861083984375 1.4612249999999998 Q 9.966736083984374 1.4957249999999997 10.002361083984376 1.5572249999999999 Q 10.037986083984375 1.6187249999999997 10.037986083984375 1.6959749999999998 Q 10.037986083984375 1.7732249999999998 10.001986083984375 1.8350999999999997 Q 9.965986083984376 1.8969749999999999 9.904486083984375 1.9314749999999998 Q 9.842986083984375 1.9659749999999998 9.768736083984376 1.9659749999999998 Q 9.694486083984375 1.9659749999999998 9.632611083984376 1.9314749999999998 M 9.869611083984376 1.8069749999999998 Q 9.907486083984375 1.7649749999999997 9.907486083984375 1.6959749999999998 Q 9.907486083984375 1.6262249999999998 9.869611083984376 1.5845999999999998 Q 9.831736083984374 1.5429749999999998 9.768736083984376 1.5429749999999998 Q 9.704986083984375 1.5429749999999998 9.667111083984375 1.5842249999999998 Q 9.629236083984376 1.6254749999999998 9.629236083984376 1.6959749999999998 Q 9.629236083984376 1.7657249999999998 9.667111083984375 1.8073499999999998 Q 9.704986083984375 1.8489749999999998 9.768736083984376 1.8489749999999998 Q 9.831736083984374 1.8489749999999998 9.869611083984376 1.8069749999999998 M 10.222119140625 1.9314749999999998 Q 10.160244140625 1.8969749999999999 10.123869140625 1.8350999999999997 Q 10.087494140625 1.7732249999999998 10.087494140625 1.6959749999999998 Q 10.087494140625 1.6187249999999997 10.123869140625 1.5572249999999999 Q 10.160244140625 1.4957249999999997 10.222119140625 1.4612249999999998 Q 10.283994140625 1.4267249999999998 10.358244140625 1.4267249999999998 Q 10.432494140625 1.4267249999999998 10.494369140625 1.4612249999999998 Q 10.556244140625 1.4957249999999997 10.591869140625 1.5572249999999999 Q 10.627494140625 1.6187249999999997 10.627494140625 1.6959749999999998 Q 10.627494140625 1.7732249999999998 10.591494140625 1.8350999999999997 Q 10.555494140625001 1.8969749999999999 10.493994140625 1.9314749999999998 Q 10.432494140625 1.9659749999999998 10.358244140625 1.9659749999999998 Q 10.283994140625 1.9659749999999998 10.222119140625 1.9314749999999998 M 10.459119140625 1.8069749999999998 Q 10.496994140625 1.7649749999999997 10.496994140625 1.6959749999999998 Q 10.496994140625 1.6262249999999998 10.459119140625 1.5845999999999998 Q 10.421244140625 1.5429749999999998 10.358244140625 1.5429749999999998 Q 10.294494140625 1.5429749999999998 10.256619140625 1.5842249999999998 Q 10.218744140625 1.6254749999999998 10.218744140625 1.6959749999999998 Q 10.218744140625 1.7657249999999998 10.256619140625 1.8073499999999998 Q 10.294494140625 1.8489749999999998 10.358244140625 1.8489749999999998 Q 10.421244140625 1.8489749999999998 10.459119140625 1.8069749999999998 M 11.295002197265624 1.4342249999999999 L 11.295002197265624 1.9607249999999998 L 11.166752197265625 1.9607249999999998 L 11.166752197265625 1.6449749999999999 L 11.049002197265626 1.9607249999999998 L 10.945502197265625 1.9607249999999998 L 10.827002197265625 1.6442249999999998 L 10.827002197265625 1.9607249999999998 L 10.698752197265625 1.9607249999999998 L 10.698752197265625 1.4342249999999999 L 10.850252197265625 1.4342249999999999 L 10.998002197265626 1.798725 L 11.144252197265626 1.4342249999999999 L 11.295002197265624 1.4342249999999999 M 11.525274536132812 1.8422249999999998 L 11.442024536132813 2.0574749999999997 L 11.360274536132813 2.0574749999999997 L 11.403774536132813 1.8422249999999998 L 11.525274536132812 1.8422249999999998 M 12.217496337890625 1.4342249999999999 L 12.217496337890625 1.9607249999999998 L 12.089246337890625 1.9607249999999998 L 12.089246337890625 1.7439749999999998 L 11.889746337890625 1.7439749999999998 L 11.889746337890625 1.9607249999999998 L 11.761496337890625 1.9607249999999998 L 11.761496337890625 1.4342249999999999 L 11.889746337890625 1.4342249999999999 L 11.889746337890625 1.640475 L 12.089246337890625 1.640475 L 12.089246337890625 1.4342249999999999 L 12.217496337890625 1.4342249999999999 M 12.637509887695312 1.8677249999999999 L 12.441009887695312 1.8677249999999999 L 12.409509887695313 1.9607249999999998 L 12.275259887695313 1.9607249999999998 L 12.465759887695313 1.4342249999999999 L 12.614259887695313 1.4342249999999999 L 12.804759887695312 1.9607249999999998 L 12.669009887695312 1.9607249999999998 L 12.637509887695312 1.8677249999999999 M 12.604509887695313 1.7687249999999999 L 12.539259887695312 1.575975 L 12.474759887695312 1.7687249999999999 L 12.604509887695313 1.7687249999999999 M 12.949509521484375 1.9472249999999998 Q 12.903759521484375 1.9284749999999997 12.876384521484376 1.8917249999999999 Q 12.849009521484374 1.8549749999999998 12.847509521484374 1.8032249999999999 L 12.984009521484374 1.8032249999999999 Q 12.987009521484374 1.8324749999999999 13.004259521484375 1.8478499999999998 Q 13.021509521484376 1.863225 13.049259521484375 1.863225 Q 13.077759521484374 1.863225 13.094259521484375 1.8500999999999999 Q 13.110759521484376 1.8369749999999998 13.110759521484376 1.8137249999999998 Q 13.110759521484376 1.7942249999999997 13.097634521484375 1.781475 Q 13.084509521484375 1.7687249999999999 13.065384521484376 1.7604749999999998 Q 13.046259521484375 1.752225 13.011009521484375 1.7417249999999997 Q 12.960009521484375 1.7259749999999998 12.927759521484376 1.7102249999999999 Q 12.895509521484374 1.6944749999999997 12.872259521484375 1.663725 Q 12.849009521484374 1.6329749999999998 12.849009521484374 1.5834749999999997 Q 12.849009521484374 1.5099749999999998 12.902259521484375 1.4683499999999998 Q 12.955509521484375 1.4267249999999998 13.041009521484375 1.4267249999999998 Q 13.128009521484374 1.4267249999999998 13.181259521484375 1.4683499999999998 Q 13.234509521484375 1.5099749999999998 13.238259521484375 1.5842249999999998 L 13.099509521484375 1.5842249999999998 Q 13.098009521484375 1.558725 13.080759521484374 1.5440999999999998 Q 13.063509521484375 1.5294749999999997 13.036509521484374 1.5294749999999997 Q 13.013259521484375 1.5294749999999997 12.999009521484375 1.5418499999999997 Q 12.984759521484374 1.5542249999999997 12.984759521484374 1.5774749999999997 Q 12.984759521484374 1.6029749999999998 13.008759521484375 1.617225 Q 13.032759521484374 1.6314749999999998 13.083759521484374 1.6479749999999997 Q 13.134759521484375 1.665225 13.166634521484376 1.6809749999999999 Q 13.198509521484375 1.6967249999999998 13.221759521484374 1.7267249999999998 Q 13.245009521484375 1.7567249999999999 13.245009521484375 1.8039749999999999 Q 13.245009521484375 1.8489749999999998 13.222134521484374 1.8857249999999999 Q 13.199259521484375 1.922475 13.155759521484375 1.9442249999999999 Q 13.112259521484376 1.9659749999999998 13.053009521484375 1.9659749999999998 Q 12.995259521484375 1.9659749999999998 12.949509521484375 1.9472249999999998 M 13.410752197265625 1.9472249999999998 Q 13.365002197265625 1.9284749999999997 13.337627197265626 1.8917249999999999 Q 13.310252197265624 1.8549749999999998 13.308752197265624 1.8032249999999999 L 13.445252197265624 1.8032249999999999 Q 13.448252197265624 1.8324749999999999 13.465502197265625 1.8478499999999998 Q 13.482752197265626 1.863225 13.510502197265625 1.863225 Q 13.539002197265624 1.863225 13.555502197265625 1.8500999999999999 Q 13.572002197265626 1.8369749999999998 13.572002197265626 1.8137249999999998 Q 13.572002197265626 1.7942249999999997 13.558877197265625 1.781475 Q 13.545752197265625 1.7687249999999999 13.526627197265626 1.7604749999999998 Q 13.507502197265625 1.752225 13.472252197265625 1.7417249999999997 Q 13.421252197265625 1.7259749999999998 13.389002197265626 1.7102249999999999 Q 13.356752197265624 1.6944749999999997 13.333502197265625 1.663725 Q 13.310252197265624 1.6329749999999998 13.310252197265624 1.5834749999999997 Q 13.310252197265624 1.5099749999999998 13.363502197265625 1.4683499999999998 Q 13.416752197265625 1.4267249999999998 13.502252197265625 1.4267249999999998 Q 13.589252197265624 1.4267249999999998 13.642502197265625 1.4683499999999998 Q 13.695752197265625 1.5099749999999998 13.699502197265625 1.5842249999999998 L 13.560752197265625 1.5842249999999998 Q 13.559252197265625 1.558725 13.542002197265624 1.5440999999999998 Q 13.524752197265625 1.5294749999999997 13.497752197265624 1.5294749999999997 Q 13.474502197265625 1.5294749999999997 13.460252197265625 1.5418499999999997 Q 13.446002197265624 1.5542249999999997 13.446002197265624 1.5774749999999997 Q 13.446002197265624 1.6029749999999998 13.470002197265625 1.617225 Q 13.494002197265624 1.6314749999999998 13.545002197265624 1.6479749999999997 Q 13.596002197265625 1.665225 13.627877197265626 1.6809749999999999 Q 13.659752197265625 1.6967249999999998 13.683002197265624 1.7267249999999998 Q 13.706252197265625 1.7567249999999999 13.706252197265625 1.8039749999999999 Q 13.706252197265625 1.8489749999999998 13.683377197265624 1.8857249999999999 Q 13.660502197265625 1.922475 13.617002197265625 1.9442249999999999 Q 13.573502197265626 1.9659749999999998 13.514252197265625 1.9659749999999998 Q 13.456502197265625 1.9659749999999998 13.410752197265625 1.9472249999999998 M 13.913244873046875 1.8617249999999999 L 14.081244873046876 1.8617249999999999 L 14.081244873046876 1.9607249999999998 L 13.784994873046875 1.9607249999999998 L 13.784994873046875 1.4342249999999999 L 13.913244873046875 1.4342249999999999 L 13.913244873046875 1.8617249999999999 M 14.270987182617187 1.5369749999999998 L 14.270987182617187 1.6434749999999998 L 14.442737182617188 1.6434749999999998 L 14.442737182617188 1.7424749999999998 L 14.270987182617187 1.7424749999999998 L 14.270987182617187 1.8579749999999997 L 14.465237182617187 1.8579749999999997 L 14.465237182617187 1.9607249999999998 L 14.142737182617187 1.9607249999999998 L 14.142737182617187 1.4342249999999999 L 14.465237182617187 1.4342249999999999 L 14.465237182617187 1.5369749999999998 L 14.270987182617187 1.5369749999999998 M 14.870998901367187 1.6442249999999998 L 14.870998901367187 1.7507249999999999 L 14.540998901367187 1.7507249999999999 L 14.540998901367187 1.6442249999999998 L 14.870998901367187 1.6442249999999998 M 15.32626171875 1.4342249999999999 L 15.32626171875 1.5369749999999998 L 15.11176171875 1.5369749999999998 L 15.11176171875 1.6479749999999997 L 15.27226171875 1.6479749999999997 L 15.27226171875 1.7477249999999998 L 15.11176171875 1.7477249999999998 L 15.11176171875 1.9607249999999998 L 14.98351171875 1.9607249999999998 L 14.98351171875 1.4342249999999999 L 15.32626171875 1.4342249999999999 M 15.662259521484375 1.9607249999999998 L 15.552759521484376 1.7619749999999998 L 15.522009521484375 1.7619749999999998 L 15.522009521484375 1.9607249999999998 L 15.393759521484375 1.9607249999999998 L 15.393759521484375 1.4342249999999999 L 15.609009521484374 1.4342249999999999 Q 15.671259521484375 1.4342249999999999 15.715134521484375 1.4559749999999998 Q 15.759009521484375 1.477725 15.780759521484375 1.5155999999999998 Q 15.802509521484374 1.5534749999999997 15.802509521484374 1.5999749999999997 Q 15.802509521484374 1.652475 15.772884521484375 1.6937249999999997 Q 15.743259521484376 1.734975 15.685509521484375 1.752225 L 15.807009521484375 1.9607249999999998 L 15.662259521484375 1.9607249999999998 M 15.522009521484375 1.6712249999999997 L 15.601509521484376 1.6712249999999997 Q 15.636759521484375 1.6712249999999997 15.654384521484374 1.6539749999999998 Q 15.672009521484375 1.6367249999999998 15.672009521484375 1.605225 Q 15.672009521484375 1.5752249999999999 15.654384521484374 1.5579749999999999 Q 15.636759521484375 1.540725 15.601509521484376 1.540725 L 15.522009521484375 1.540725 L 15.522009521484375 1.6712249999999997 M 16.01099267578125 1.5369749999999998 L 16.01099267578125 1.6434749999999998 L 16.18274267578125 1.6434749999999998 L 16.18274267578125 1.7424749999999998 L 16.01099267578125 1.7424749999999998 L 16.01099267578125 1.8579749999999997 L 16.20524267578125 1.8579749999999997 L 16.20524267578125 1.9607249999999998 L 15.88274267578125 1.9607249999999998 L 15.88274267578125 1.4342249999999999 L 16.20524267578125 1.4342249999999999 L 16.20524267578125 1.5369749999999998 L 16.01099267578125 1.5369749999999998 M 16.41675439453125 1.5369749999999998 L 16.41675439453125 1.6434749999999998 L 16.58850439453125 1.6434749999999998 L 16.58850439453125 1.7424749999999998 L 16.41675439453125 1.7424749999999998 L 16.41675439453125 1.8579749999999997 L 16.61100439453125 1.8579749999999997 L 16.61100439453125 1.9607249999999998 L 16.28850439453125 1.9607249999999998 L 16.28850439453125 1.4342249999999999 L 16.61100439453125 1.4342249999999999 L 16.61100439453125 1.5369749999999998 L 16.41675439453125 1.5369749999999998 M 16.69914111328125 1.9468499999999997 Q 16.67776611328125 1.9269749999999999 16.67776611328125 1.8977249999999999 Q 16.67776611328125 1.8677249999999999 16.69914111328125 1.8474749999999998 Q 16.72051611328125 1.8272249999999999 16.75426611328125 1.8272249999999999 Q 16.78726611328125 1.8272249999999999 16.80864111328125 1.8474749999999998 Q 16.83001611328125 1.8677249999999999 16.83001611328125 1.8977249999999999 Q 16.83001611328125 1.9269749999999999 16.80864111328125 1.9468499999999997 Q 16.78726611328125 1.9667249999999998 16.75426611328125 1.9667249999999998 Q 16.72051611328125 1.9667249999999998 16.69914111328125 1.9468499999999997" fill="#ed1c24" fill-rule="nonzero"></path></g></g><defs><clipPath id="SvgjsClipPath1006"><path d=" M -3.987211815361169 -1.0760632288284202 h 3.587211815361169 v 4.1128514576568405 h -3.587211815361169 Z"></path></clipPath><clipPath id="SvgjsClipPath1000d22818d3-9828-4f64-8cc8-8152dbea3493"><path d=" M -3.987211815361169 -1.0760632288284202 L -0.3999999999999999 -1.0760632288284202 L -0.3999999999999999 3.0367882288284203 L -3.987211815361169 3.0367882288284203 Z"></path></clipPath></defs></svg>