<svg xmlns="http://www.w3.org/2000/svg" version="1.1" xmlns:xlink="http://www.w3.org/1999/xlink" viewBox="0 0 17.040821091851704 11.81853648443218"><g transform="matrix(1,0,0,1,1.1786594472930396,8.58240203713914)"><g clip-path="url(#SvgjsClipPath1001)"><g clip-path="url(#SvgjsClipPath10005df840f7-9437-4b67-b711-65d0a7abd903)"><path d=" M 10.217931487343707 -2.8992522182980336 C 9.988125052963671 -3.2920371031731106 9.667623497596857 -3.611856740337017 9.350531533244581 -3.88257826689154 C 8.675432512365546 -4.441751193276196 10.001081498818927 -5.269599891606649 10.043360427399229 -5.74012345161325 C 10.060408382471932 -5.926969039210075 9.854469085193681 -5.997206614109611 9.67376076142303 -6.023801424023027 C 9.450091590869167 -6.056533497762618 9.225740502112396 -6.067444189009147 9.004799004370167 -6.056533497762618 C 8.830227944425687 -6.047668561124812 8.65906647549575 -6.025847178631752 8.491314597580354 -5.995160859500887 C 8.18854291548915 -5.939925485065329 7.891908497224119 -5.854685709701815 7.599365588176536 -5.763990588715036 C 7.471164966029811 -5.724371141126074 7.3422824256801755 -5.683319665311005 7.213740844431996 -5.639540516684304 L 6.650817367931346 -4.752023975599389 L 6.108624204799103 -5.1496504797151115 C 5.847585916725874 -4.993968553991189 5.602231747319535 -4.807191158214655 5.383131428725157 -4.576089079249094 C 5.089224683271758 -4.266498215128809 4.838960702804479 -3.90030814016715 4.620746877873882 -3.5054775006833503 C 4.433901290277057 -3.167246072040924 4.264103657752936 -2.7908272240356444 4.228643911201714 -2.3994061755663845 C 4.153632908881821 -1.5626925405981247 4.727126117527548 -1.01033879624255 5.364719637246638 -0.7041575231368062 C 5.865997708204395 -0.46330401386965914 6.429944062009408 -0.3326484861924639 7.011824864550904 -0.293574573165829 L 4.763949700484586 -1.591333105120266 L 4.763267782281678 -1.9234272699365187 L 5.054446854923444 -2.0915201069533698 L 5.054446854923444 -2.6987682666430484 L 4.894877995442944 -2.7908272240356444 L 5.92116489081966 -4.567906060814197 L 6.330724963486276 -4.331553211686245 L 6.643998185902264 -4.51267068637864 L 6.806294718194396 -4.419247892580229 L 6.806294718194396 -4.226946959360139 L 6.806294718194396 -4.057149326836018 L 6.904286363952293 -4.000550115994645 L 8.035111319834824 -3.347954395811576 L 9.060716297008632 -2.7553674774844223 L 9.009572431790524 -2.6660361929034586 L 8.798177788889006 -2.788099551224011 L 8.798177788889006 -1.9060383557623624 L 9.089356861530772 -1.7379455187455113 L 9.089356861530772 -1.4058513539292585 L 8.8546406160898 -1.2701496315505434 L 8.935925265876445 -1.2230972755498835 L 8.935925265876445 -1.057391152243211 L 7.979194027196358 -0.5043554896847287 L 8.935925265876445 -1.0567092340403033 L 9.079810006690058 -0.9741971314884204 L 9.409517457796134 -0.6698570375305284 C 9.640005810379076 -0.7807369373233879 9.854332701553098 -0.9216894298644958 10.040632754587595 -1.1003519990264223 C 10.541842633725064 -1.5811043320766442 10.588213071522816 -2.2650682895934864 10.217931487343707 -2.8992522182980336 Z" fill="#d9ffdc" transform="matrix(1,0,0,1,0,0)" fill-rule="nonzero"></path></g><g clip-path="url(#SvgjsClipPath10005df840f7-9437-4b67-b711-65d0a7abd903)"><path d=" M 7.149776916999215 -0.2860734729338379 C 7.374741732138603 -0.27652661809312473 7.601820493707006 -0.28020897638882936 7.828490104353664 -0.2963704377977514 C 7.892863182708191 -0.3009392897572356 7.957781795625044 -0.3064628272007912 8.023177751283932 -0.31300924194871005 L 7.609594361220159 -0.5514078456853868 L 7.149776916999215 -0.2860734729338379 Z" fill="#d9ffdc" transform="matrix(1,0,0,1,0,0)" fill-rule="nonzero"></path></g><g clip-path="url(#SvgjsClipPath10005df840f7-9437-4b67-b711-65d0a7abd903)"><path d=" M 7.08724501779254 -0.5820941648162528 L 7.37794674769227 -0.7498460427316491 L 7.377810364051689 -0.7498460427316491 Z" fill="#d9ffdc" transform="matrix(1,0,0,1,0,0)" fill-rule="nonzero"></path></g><g clip-path="url(#SvgjsClipPath10005df840f7-9437-4b67-b711-65d0a7abd903)"><path d=" M 8.8546406160898 -1.2701496315505434 L 9.089356861530772 -1.4058513539292585 L 9.089356861530772 -1.7379455187455113 L 8.567143901743737 -1.4364694812398326 Z" fill="#bbc0e6" transform="matrix(1,0,0,1,0,0)" fill-rule="nonzero"></path></g><g clip-path="url(#SvgjsClipPath10005df840f7-9437-4b67-b711-65d0a7abd903)"><path d=" M 9.089356861530772 -1.7379455187455113 L 8.798177788889006 -1.9060383557623624 L 8.798177788889006 -1.9056973966609076 Z" fill="#f6f6fb" transform="matrix(1,0,0,1,0,0)" fill-rule="nonzero"></path></g><g clip-path="url(#SvgjsClipPath10005df840f7-9437-4b67-b711-65d0a7abd903)"><path d=" M 7.377810364051689 -0.7498460427316491 L 7.0654236352994815 -0.7498460427316491 L 5.054446854923444 -1.9111527422841732 L 5.054446854923444 -2.091520106953369 L 4.763267782281678 -1.9234272699365187 L 7.08724501779254 -0.5820941648162528 Z" fill="#f6f6fb" transform="matrix(1,0,0,1,0,0)" fill-rule="nonzero"></path></g><g clip-path="url(#SvgjsClipPath10005df840f7-9437-4b67-b711-65d0a7abd903)"><path d=" M 8.567143901743737 -1.4364694812398326 L 9.089356861530772 -1.7379455187455113 L 8.567007518103154 -1.4365376730601227 Z" fill="#f6f6fb" transform="matrix(1,0,0,1,0,0)" fill-rule="nonzero"></path></g><g clip-path="url(#SvgjsClipPath10005df840f7-9437-4b67-b711-65d0a7abd903)"><path d=" M 7.609594361220159 -0.8835020105016413 L 7.378424090434307 -0.7498460427316491 L 7.37794674769227 -0.7498460427316491 L 7.08724501779254 -0.5820941648162528 L 7.08724501779254 -0.2499999999999991 L 7.149776916999215 -0.2860734729338379 L 7.609594361220159 -0.5514078456853868 Z" fill="#bbc0e6" transform="matrix(1,0,0,1,0,0)" fill-rule="nonzero"></path></g><g clip-path="url(#SvgjsClipPath10005df840f7-9437-4b67-b711-65d0a7abd903)"><path d=" M 7.08724501779254 -0.5820941648162528 L 4.763267782281678 -1.9234272699365187 L 4.763949700484586 -1.591333105120266 L 7.011824864550904 -0.293574573165829 L 7.08724501779254 -0.2499999999999991 Z" fill="#ced3f8" transform="matrix(1,0,0,1,0,0)" fill-rule="nonzero"></path></g><g clip-path="url(#SvgjsClipPath10005df840f7-9437-4b67-b711-65d0a7abd903)"><path d=" M 9.07981000669006 -0.8078090899788384 L 8.123078768009972 -0.2554553456232638 L 8.410848249637198 -0.2554553456232638 L 9.85856059441113 -0.2554553456232638 L 9.409517457796134 -0.6698570375305266 L 9.07981000669006 -0.9741971314884204 Z" fill="#dae0f5" transform="matrix(1,0,0,1,0,0)" fill-rule="nonzero"></path></g><g clip-path="url(#SvgjsClipPath10005df840f7-9437-4b67-b711-65d0a7abd903)"><path d=" M 7.8417875093103735 -0.7498460427316491 L 7.979194027196359 -0.670743531194308 L 8.116191394160598 -0.7498460427316491 Z" fill="#f6f6fb" transform="matrix(1,0,0,1,0,0)" fill-rule="nonzero"></path></g><g clip-path="url(#SvgjsClipPath10005df840f7-9437-4b67-b711-65d0a7abd903)"><path d=" M 8.116191394160598 -0.7498460427316491 L 7.979194027196359 -0.670743531194308 L 7.979194027196359 -0.5043554896847269 L 8.935925265876445 -1.05739115224321 L 8.935925265876445 -1.2230972755498835 L 8.116941504183798 -0.7498460427316491 Z" fill="#bbc0e6" transform="matrix(1,0,0,1,0,0)" fill-rule="nonzero"></path></g><g clip-path="url(#SvgjsClipPath10005df840f7-9437-4b67-b711-65d0a7abd903)"><path d=" M 9.07981000669006 -0.8078090899788384 L 9.07981000669006 -0.9741971314884204 L 8.123078768009972 -0.42116146892993545 L 8.123078768009972 -0.2554553456232638 Z" fill="#bbc0e6" transform="matrix(1,0,0,1,0,0)" fill-rule="nonzero"></path></g><g clip-path="url(#SvgjsClipPath10005df840f7-9437-4b67-b711-65d0a7abd903)"><path d=" M 9.07981000669006 -0.9741971314884204 L 8.266963508823583 -0.5043554896847269 L 7.979194027196359 -0.5043554896847269 L 8.123078768009972 -0.42116146892993545 Z" fill="#f6f6fb" transform="matrix(1,0,0,1,0,0)" fill-rule="nonzero"></path></g><g clip-path="url(#SvgjsClipPath10005df840f7-9437-4b67-b711-65d0a7abd903)"><path d=" M 8.123078768009972 -0.42116146892993545 L 7.979194027196359 -0.5043554896847269 L 7.979194027196359 -0.670743531194308 L 7.8417875093103735 -0.7498460427316491 L 7.841446550208918 -0.7498460427316491 L 7.609594361220159 -0.8835020105016413 L 7.609594361220159 -0.5514078456853868 L 8.023177751283932 -0.31300924194871005 L 8.123078768009972 -0.2554553456232638 Z" fill="#ced3f8" transform="matrix(1,0,0,1,0,0)" fill-rule="nonzero"></path></g><g clip-path="url(#SvgjsClipPath10005df840f7-9437-4b67-b711-65d0a7abd903)"><path d=" M 8.798177788889006 -1.7502200463978568 L 8.27923803647593 -1.450653379860321 L 8.27923803647593 -1.4038055993205338 L 8.217183480011292 -1.3683458527693109 L 8.176950306039712 -1.3915310716681875 L 8.104189633789415 -1.3495931021893384 L 7.7821196665559125 -1.1636340082562953 L 7.7821196665559125 -1.1228552997223886 L 7.720065110091273 -1.0867136349682598 L 7.684605363540051 -1.1071711810555023 L 7.684605363540051 -1.1073075646960842 L 7.0654236352994815 -0.7498460427316491 L 7.377810364051689 -0.7498460427316491 L 7.37794674769227 -0.7498460427316491 L 7.378424090434307 -0.7498460427316491 L 7.609594361220159 -0.8835020105016413 L 7.841446550208918 -0.7498460427316491 L 7.8417875093103735 -0.7498460427316491 L 8.116191394160598 -0.7498460427316491 L 8.116941504183798 -0.7498460427316491 L 8.935925265876445 -1.2230972755498835 L 8.8546406160898 -1.2701496315505434 L 8.567143901743737 -1.4364694812398326 L 8.567007518103154 -1.4365376730601227 L 9.089356861530772 -1.7379455187455113 L 8.798177788889006 -1.9056973966609076 Z" fill="#dae0f5" transform="matrix(1,0,0,1,0,0)" fill-rule="nonzero"></path></g><g clip-path="url(#SvgjsClipPath10005df840f7-9437-4b67-b711-65d0a7abd903)"><path d=" M 7.0654236352994815 -0.7498460427316491 L 7.065969169861807 -1.5512363147892687 L 7.059968289676216 -1.5408711581050643 L 7.0088244244581075 -1.5708755590330226 L 6.731283715874504 -1.7310581448961386 L 6.731283715874504 -1.2387813942167698 L 6.264851665085352 -1.5081390843654754 L 6.264851665085352 -1.5221184075250918 L 6.198023681200356 -1.5606467859894009 L 6.198023681200356 -2.0388078298685732 L 5.910254199573131 -2.204854912276698 L 5.910254199573131 -1.712714545237911 L 5.443822148783979 -1.9820722353866165 L 5.443822148783979 -1.9964607094679776 L 5.377676083101892 -2.034579937010543 L 5.377676083101892 -2.512195446327387 L 5.054446854923444 -2.6987682666430484 L 5.054446854923444 -2.091520106953369 L 5.054446854923444 -1.9111527422841732 Z" fill="#ced3f8" transform="matrix(1,0,0,1,0,0)" fill-rule="nonzero"></path></g><g clip-path="url(#SvgjsClipPath10005df840f7-9437-4b67-b711-65d0a7abd903)"><path d=" M 7.065969169861807 -1.5512363147892687 L 7.0654236352994815 -0.7498460427316491 L 7.684605363540051 -1.1073075646960842 L 7.684605363540051 -2.1648263137659916 L 8.243778289924709 -2.487373623741532 L 8.27923803647593 -2.4669160776542887 L 8.27923803647593 -1.450653379860321 L 8.798177788889006 -1.7502200463978568 L 8.798177788889006 -1.9056973966609076 L 8.798177788889006 -1.9060383557623624 L 8.798177788889006 -2.788099551224011 L 8.035111319834824 -3.228618710302655 Z" fill="#ffffff" transform="matrix(1,0,0,1,0,0)" fill-rule="nonzero"></path></g><g clip-path="url(#SvgjsClipPath10005df840f7-9437-4b67-b711-65d0a7abd903)"><path d=" M 7.7821196665559125 -1.1636340082562953 L 8.104189633789415 -1.3495931021893384 L 7.7821196665559125 -1.1637703918968763 Z" fill="#ffffff" transform="matrix(1,0,0,1,0,0)" fill-rule="nonzero"></path></g><g clip-path="url(#SvgjsClipPath10005df840f7-9437-4b67-b711-65d0a7abd903)"><path d=" M 6.695142051120373 -1.3083370509133978 L 6.665137650192417 -1.2912890958406953 L 6.264851665085352 -1.5221184075250918 L 6.264851665085352 -1.5081390843654754 L 6.731283715874504 -1.2387813942167698 L 6.731283715874504 -1.7310581448961386 L 6.695142051120373 -1.7519248419051268 Z" fill="#f6f6fb" transform="matrix(1,0,0,1,0,0)" fill-rule="nonzero"></path></g><g clip-path="url(#SvgjsClipPath10005df840f7-9437-4b67-b711-65d0a7abd903)"><path d=" M 6.665137650192417 -1.769245564258994 L 6.613311866771399 -1.7991135815463686 L 6.613311866771399 -1.4194897179874202 L 6.613311866771399 -1.3813022986245658 L 6.250531382824281 -1.5906511869173583 L 6.250531382824281 -2.008462469839161 L 6.198023681200356 -2.0388078298685732 L 6.198023681200356 -1.5606467859894009 L 6.264851665085352 -1.5221184075250918 L 6.665137650192417 -1.2912890958406953 Z" fill="#e1e6ff" transform="matrix(1,0,0,1,0,0)" fill-rule="nonzero"></path></g><g clip-path="url(#SvgjsClipPath10005df840f7-9437-4b67-b711-65d0a7abd903)"><path d=" M 6.695142051120373 -1.3083370509133978 L 6.695142051120373 -1.7519248419051268 L 6.665137650192417 -1.769245564258994 L 6.665137650192417 -1.2912890958406953 Z" fill="#bbc0e6" transform="matrix(1,0,0,1,0,0)" fill-rule="nonzero"></path></g><g clip-path="url(#SvgjsClipPath10005df840f7-9437-4b67-b711-65d0a7abd903)"><path d=" M 6.613311866771399 -1.4194897179874202 L 6.613311866771399 -1.7991135815463686 L 6.468745207754878 -1.8825803695823229 L 6.468745207754878 -1.5033656569451184 L 6.431921624797841 -1.5245051212352703 L 6.431921624797841 -1.9037880256927648 L 6.283945374766779 -1.989232376517152 L 6.283945374766779 -1.6097448965987846 Z" fill="#9e0f11" transform="matrix(1,0,0,1,0,0)" fill-rule="nonzero"></path></g><g clip-path="url(#SvgjsClipPath10005df840f7-9437-4b67-b711-65d0a7abd903)"><path d=" M 6.250531382824281 -1.5906511869173583 L 6.613311866771399 -1.3813022986245658 L 6.613311866771399 -1.4194897179874202 L 6.283945374766779 -1.6097448965987846 Z" fill="#ffffff" transform="matrix(1,0,0,1,0,0)" fill-rule="nonzero"></path></g><g clip-path="url(#SvgjsClipPath10005df840f7-9437-4b67-b711-65d0a7abd903)"><path d=" M 6.283945374766779 -1.6097448965987846 L 6.283945374766779 -1.989232376517152 L 6.250531382824281 -2.008462469839161 L 6.250531382824281 -1.5906511869173583 Z" fill="#bbc0e6" transform="matrix(1,0,0,1,0,0)" fill-rule="nonzero"></path></g><g clip-path="url(#SvgjsClipPath10005df840f7-9437-4b67-b711-65d0a7abd903)"><path d=" M 6.468745207754878 -1.5033656569451184 L 6.468745207754878 -1.8825803695823229 L 6.431921624797841 -1.9037880256927648 L 6.431921624797841 -1.5245051212352703 Z" fill="#bbc0e6" transform="matrix(1,0,0,1,0,0)" fill-rule="nonzero"></path></g><g clip-path="url(#SvgjsClipPath10005df840f7-9437-4b67-b711-65d0a7abd903)"><path d=" M 5.874112534819 -1.782270201934539 L 5.844790052093952 -1.7652222468618355 L 5.443822148783979 -1.9964607094679776 L 5.443822148783979 -1.9820722353866165 L 5.910254199573131 -1.712714545237911 L 5.910254199573131 -2.204854912276698 L 5.874112534819 -2.2257216092856877 Z" fill="#f6f6fb" transform="matrix(1,0,0,1,0,0)" fill-rule="nonzero"></path></g><g clip-path="url(#SvgjsClipPath10005df840f7-9437-4b67-b711-65d0a7abd903)"><path d=" M 5.844790052093952 -2.2426331807178084 L 5.7922823504700265 -2.2729103489269287 L 5.7922823504700265 -1.8934228690085622 L 5.7922823504700265 -1.8545535314427983 L 5.429501866522909 -2.0645843379384994 L 5.429501866522909 -2.4823274290400112 L 5.377676083101892 -2.512195446327387 L 5.377676083101892 -2.034579937010543 L 5.443822148783979 -1.9964607094679776 L 5.844790052093952 -1.7652222468618355 Z" fill="#e1e6ff" transform="matrix(1,0,0,1,0,0)" fill-rule="nonzero"></path></g><g clip-path="url(#SvgjsClipPath10005df840f7-9437-4b67-b711-65d0a7abd903)"><path d=" M 5.874112534819 -1.782270201934539 L 5.874112534819 -2.2257216092856877 L 5.844790052093952 -2.2426331807178084 L 5.844790052093952 -1.7652222468618355 Z" fill="#bbc0e6" transform="matrix(1,0,0,1,0,0)" fill-rule="nonzero"></path></g><g clip-path="url(#SvgjsClipPath10005df840f7-9437-4b67-b711-65d0a7abd903)"><path d=" M 5.462915858465406 -2.0836780476199266 L 5.7922823504700265 -1.8934228690085622 L 5.7922823504700265 -2.2729103489269287 L 5.647715691453506 -2.356377136962883 L 5.647715691453506 -1.9772988079662603 L 5.610892108496468 -1.9984382722564122 L 5.610892108496468 -2.377584793073325 L 5.462915858465406 -2.463029143897712 Z" fill="#9e0f11" transform="matrix(1,0,0,1,0,0)" fill-rule="nonzero"></path></g><g clip-path="url(#SvgjsClipPath10005df840f7-9437-4b67-b711-65d0a7abd903)"><path d=" M 5.429501866522909 -2.0645843379384994 L 5.7922823504700265 -1.8545535314427983 L 5.7922823504700265 -1.8934228690085622 L 5.462915858465406 -2.0836780476199266 Z" fill="#ffffff" transform="matrix(1,0,0,1,0,0)" fill-rule="nonzero"></path></g><g clip-path="url(#SvgjsClipPath10005df840f7-9437-4b67-b711-65d0a7abd903)"><path d=" M 5.429501866522909 -2.0645843379384994 L 5.462915858465406 -2.0836780476199266 L 5.462915858465406 -2.463029143897712 L 5.429501866522909 -2.4823274290400112 Z" fill="#bbc0e6" transform="matrix(1,0,0,1,0,0)" fill-rule="nonzero"></path></g><g clip-path="url(#SvgjsClipPath10005df840f7-9437-4b67-b711-65d0a7abd903)"><path d=" M 5.647715691453506 -1.9772988079662603 L 5.647715691453506 -2.356377136962883 L 5.610892108496468 -2.377584793073325 L 5.610892108496468 -1.9984382722564122 Z" fill="#bbc0e6" transform="matrix(1,0,0,1,0,0)" fill-rule="nonzero"></path></g><g clip-path="url(#SvgjsClipPath10005df840f7-9437-4b67-b711-65d0a7abd903)"><path d=" M 5.429501866522909 -2.4823274290400112 L 5.462915858465406 -2.463029143897712 L 5.610892108496468 -2.377584793073325 L 5.647715691453506 -2.356377136962883 L 5.7922823504700265 -2.2729103489269287 L 5.844790052093952 -2.2426331807178084 L 5.874112534819 -2.2257216092856877 L 5.910254199573131 -2.204854912276698 L 6.198023681200356 -2.0388078298685732 L 6.250531382824281 -2.008462469839161 L 6.283945374766779 -1.989232376517152 L 6.431921624797841 -1.9037880256927648 L 6.468745207754878 -1.8825803695823229 L 6.613311866771399 -1.7991135815463686 L 6.665137650192417 -1.769245564258994 L 6.695142051120373 -1.7519248419051268 L 6.731283715874504 -1.7310581448961386 L 7.0088244244581075 -1.5708755590330226 L 8.035111319834824 -3.347954395811575 L 6.904286363952293 -4.000550115994644 L 7.548903641161337 -3.6282227772068114 L 6.431239706594932 -3.0608668323872585 L 6.268943174302801 -3.15428962618567 L 6.268943174302801 -4.104201682836678 L 6.268943174302801 -4.295820697853858 L 6.330724963486276 -4.331553211686243 L 5.921164890819661 -4.567906060814197 L 4.894877995442944 -2.7908272240356444 L 5.054446854923444 -2.6987682666430484 L 5.377676083101892 -2.512195446327387 Z" fill="#ed1c24" transform="matrix(1,0,0,1,0,0)" fill-rule="nonzero"></path></g><g clip-path="url(#SvgjsClipPath10005df840f7-9437-4b67-b711-65d0a7abd903)"><path d=" M 7.0088244244581075 -1.5708755590330226 L 7.059968289676216 -1.5408711581050643 L 7.065969169861807 -1.5512363147892687 L 8.035111319834824 -3.228618710302655 L 8.798177788889006 -2.788099551224011 L 9.009572431790524 -2.6660361929034577 L 9.060716297008632 -2.7553674774844215 L 8.035111319834824 -3.347954395811575 Z" fill="#9e0f11" transform="matrix(1,0,0,1,0,0)" fill-rule="nonzero"></path></g><g clip-path="url(#SvgjsClipPath10005df840f7-9437-4b67-b711-65d0a7abd903)"><path d=" M 6.806294718194398 -3.710734879758694 L 6.431239706594932 -3.0608668323872585 L 7.548903641161337 -3.6282227772068114 L 6.904286363952293 -4.000550115994644 L 6.806294718194398 -4.057149326836017 Z" fill="#9e0f11" transform="matrix(1,0,0,1,0,0)" fill-rule="nonzero"></path></g><g clip-path="url(#SvgjsClipPath10005df840f7-9437-4b67-b711-65d0a7abd903)"><path d=" M 6.431239706594932 -4.010096970835358 L 6.431239706594932 -3.896216630949702 L 6.431239706594932 -3.0608668323872585 L 6.806294718194398 -3.710734879758694 L 6.806294718194398 -4.057149326836017 L 6.806294718194398 -4.226946959360139 Z" fill="#bbc0e6" transform="matrix(1,0,0,1,0,0)" fill-rule="nonzero"></path></g><g clip-path="url(#SvgjsClipPath10005df840f7-9437-4b67-b711-65d0a7abd903)"><path d=" M 6.431239706594932 -4.010096970835358 L 6.268943174302801 -4.104201682836678 L 6.268943174302801 -3.15428962618567 L 6.431239706594932 -3.0608668323872585 L 6.431239706594932 -3.896216630949702 Z" fill="#ced3f8" transform="matrix(1,0,0,1,0,0)" fill-rule="nonzero"></path></g><g clip-path="url(#SvgjsClipPath10005df840f7-9437-4b67-b711-65d0a7abd903)"><path d=" M 6.431239706594932 -4.202397904055446 L 6.268943174302801 -4.295820697853858 L 6.268943174302801 -4.104201682836678 L 6.431239706594932 -4.010096970835358 Z" fill="#f14950" transform="matrix(1,0,0,1,0,0)" fill-rule="nonzero"></path></g><g clip-path="url(#SvgjsClipPath10005df840f7-9437-4b67-b711-65d0a7abd903)"><path d=" M 6.431239706594932 -4.202397904055446 L 6.431239706594932 -4.010096970835358 L 6.806294718194398 -4.226946959360139 L 6.806294718194398 -4.419247892580227 Z" fill="#ed1c24" transform="matrix(1,0,0,1,0,0)" fill-rule="nonzero"></path></g><g clip-path="url(#SvgjsClipPath10005df840f7-9437-4b67-b711-65d0a7abd903)"><path d=" M 6.431239706594932 -4.202397904055446 L 6.806294718194398 -4.419247892580227 L 6.643998185902265 -4.512670686378639 L 6.330724963486276 -4.331553211686243 L 6.268943174302801 -4.295820697853858 Z" fill="#f4777c" transform="matrix(1,0,0,1,0,0)" fill-rule="nonzero"></path></g><g clip-path="url(#SvgjsClipPath10005df840f7-9437-4b67-b711-65d0a7abd903)"><path d=" M 9.07981000669006 -0.9741971314884204 L 8.935925265876445 -1.0567092340403015 L 7.979194027196359 -0.5043554896847269 L 8.266963508823583 -0.5043554896847269 Z" fill="#dae0f5" transform="matrix(1,0,0,1,0,0)" fill-rule="nonzero"></path></g><g clip-path="url(#SvgjsClipPath10005df840f7-9437-4b67-b711-65d0a7abd903)"><path d=" M 7.720065110091273 -1.0867136349682598 L 7.720065110091273 -2.144368767678748 L 7.684605363540051 -2.1648263137659916 L 7.684605363540051 -1.1073075646960842 L 7.684605363540051 -1.1071711810555023 Z" fill="#a1a9d6" transform="matrix(1,0,0,1,0,0)" fill-rule="nonzero"></path></g><g clip-path="url(#SvgjsClipPath10005df840f7-9437-4b67-b711-65d0a7abd903)"><path d=" M 8.27923803647593 -2.4669160776542887 L 8.243778289924709 -2.487373623741532 L 7.684605363540051 -2.1648263137659916 L 7.720065110091273 -2.144368767678748 Z" fill="#f6f6fb" transform="matrix(1,0,0,1,0,0)" fill-rule="nonzero"></path></g><g clip-path="url(#SvgjsClipPath10005df840f7-9437-4b67-b711-65d0a7abd903)"><path d=" M 7.720065110091273 -2.144368767678748 L 7.720065110091273 -1.0867136349682598 L 7.7821196665559125 -1.1228552997223886 L 7.7821196665559125 -1.1636340082562953 L 7.7821196665559125 -1.1637703918968763 L 7.7821196665559125 -2.1082271029246193 L 8.176950306039712 -2.3359877826959297 L 8.217183480011292 -2.3591730015948054 L 8.217183480011292 -1.3683458527693109 L 8.27923803647593 -1.4038055993205338 L 8.27923803647593 -1.450653379860321 L 8.27923803647593 -2.4669160776542887 Z" fill="#c5cbea" transform="matrix(1,0,0,1,0,0)" fill-rule="nonzero"></path></g><g clip-path="url(#SvgjsClipPath10005df840f7-9437-4b67-b711-65d0a7abd903)"><path d=" M 8.217183480011292 -2.3591730015948054 L 8.176950306039712 -2.3359877826959297 L 8.176950306039712 -1.3915310716681875 L 8.217183480011292 -1.3683458527693109 Z" fill="#a1a9d6" transform="matrix(1,0,0,1,0,0)" fill-rule="nonzero"></path></g><g clip-path="url(#SvgjsClipPath10005df840f7-9437-4b67-b711-65d0a7abd903)"><path d=" M 8.176950306039712 -2.3359877826959297 L 7.7821196665559125 -2.1082271029246193 L 7.7821196665559125 -1.1637703918968763 L 8.104189633789415 -1.3495931021893384 L 8.176950306039712 -1.3915310716681875 Z" fill="#ed1c24" transform="matrix(1,0,0,1,0,0)" fill-rule="nonzero"></path></g><g clip-path="url(#SvgjsClipPath10005df840f7-9437-4b67-b711-65d0a7abd903)"><path d=" M 6.804248963585672 -6.672987553191555 C 6.823342673267099 -6.6266171153938025 6.8342533645136285 -6.571381740958246 6.8342533645136285 -6.508645266290698 C 6.8342533645136285 -6.24747059457689 6.650817367931346 -5.958337276543848 6.424420524565851 -5.862186809933803 C 6.3698670683332015 -5.839683509237836 6.318041284912184 -5.830136654397123 6.270988928911525 -5.8321824090058465 C 6.270988928911525 -5.832114217185556 6.271057120731815 -5.8320460253652655 6.271057120731815 -5.831977833544975 C 6.272693724418795 -5.827954516147817 6.2744667117463555 -5.8239993905709495 6.276307890894207 -5.820044264994083 C 6.276785233636243 -5.8190213876897205 6.277262576378279 -5.817930318565067 6.277808110940605 -5.816907441260705 C 6.283399840204452 -5.805042064530104 6.289605295850915 -5.793858606002411 6.296424477879997 -5.783220682037044 C 6.296970012442323 -5.782334188373263 6.29751554700465 -5.781447694709483 6.298061081566976 -5.780629392865993 C 6.300038644355411 -5.777560760952907 6.302152590784425 -5.774628512680402 6.30419834539315 -5.771696264407897 C 6.305153030877221 -5.770332428002081 6.306107716361292 -5.7690367834165555 6.307130593665654 -5.767672947010739 C 6.309176348274379 -5.764877082378816 6.311290294703394 -5.762081217746893 6.3134724329527 -5.75935354493526 C 6.31435892661648 -5.758262475810607 6.315313612100551 -5.757171406685954 6.316200105764333 -5.7560803375613006 C 6.320291614981781 -5.7511705265003625 6.3245195078398115 -5.7463970990800055 6.328883784338423 -5.741828247120521 C 6.330043045283367 -5.740600794355287 6.331202306228311 -5.739373341590052 6.332361567173255 -5.738145888824818 C 6.3344755136022695 -5.735963750575511 6.336725843671866 -5.733917995966787 6.338907981921173 -5.7318722413580625 C 6.340476393787862 -5.7303720213116645 6.342112997474841 -5.728939993085557 6.34368140934153 -5.72750796485945 C 6.345795355770544 -5.725598593891308 6.347977494019851 -5.7237574147434565 6.350159632269156 -5.721916235595604 C 6.3521371950575904 -5.720279631908625 6.354114757846023 -5.7187794118622275 6.356092320634457 -5.7172109999955385 C 6.35888818526638 -5.715028861746232 6.361684049898304 -5.712983107137507 6.364548106350517 -5.710937352528783 C 6.367480354623023 -5.708823406099768 6.370480794715819 -5.706777651491044 6.373549426628905 -5.704868280522901 C 6.375390605776756 -5.703709019577958 6.377299976744899 -5.702549758633014 6.379141155892752 -5.701458689508361 C 6.381800636884092 -5.699890277641672 6.3844601178754345 -5.698321865774983 6.387187790687067 -5.696821645728586 C 6.388960778014628 -5.695866960244515 6.39080195716248 -5.694844082940152 6.3925749444900415 -5.693889397456081 C 6.3959845355045815 -5.69211641012852 6.399462318339413 -5.690411614621249 6.403008292994535 -5.68884320275456 C 6.404099362119188 -5.688297668192234 6.405190431243842 -5.687752133629908 6.406349692188785 -5.687274790887872 C 6.411123119609142 -5.685160844458856 6.416032930670081 -5.683251473490714 6.420942741731019 -5.681410294342862 C 6.421829235394799 -5.681069335241408 6.422783920878871 -5.680796567960245 6.423738606362942 -5.680455608858791 C 6.428034691041264 -5.678955388812392 6.432330775719585 -5.677591552406577 6.436763244038488 -5.676295907821051 C 6.4377861213428496 -5.676023140539888 6.438808998647211 -5.675682181438434 6.439900067771864 -5.67540941415727 C 6.445014454293675 -5.673977385931163 6.450197032635778 -5.672681741345638 6.455515994618461 -5.671590672220985 C 6.455515994618461 -5.671590672220985 6.455584186438751 -5.671590672220985 6.455584186438751 -5.671590672220985 C 6.4671086040678984 -5.669203958510806 6.4789739807985 -5.667567354823827 6.4911803166305555 -5.666749052980338 C 6.4913167002711365 -5.666749052980338 6.491521275732009 -5.666749052980338 6.491657659372591 -5.666749052980338 C 6.528208475048466 -5.664294147449868 6.567486963535973 -5.668931191229643 6.608538439351042 -5.68120571888199 C 6.609015782093078 -5.681342102522571 6.6094249330148225 -5.681478486163153 6.609902275756858 -5.6816148698037345 C 6.6159031559424495 -5.683456048951586 6.621972227948332 -5.685501803560311 6.628041299954214 -5.687615749989326 C 6.628995985438285 -5.6879567090907805 6.630018862742649 -5.688297668192234 6.630973548226719 -5.688638627293688 C 6.637588154794928 -5.691025341003867 6.644202761363137 -5.693616630174917 6.650885559751637 -5.69641249480684 C 6.650885559751637 -5.69641249480684 6.650885559751637 -5.69641249480684 6.650885559751637 -5.69641249480684 C 6.877282403117132 -5.7918810432139765 7.0607183996994145 -6.081014361247019 7.0607183996994145 -6.342189032960827 C 7.0607183996994145 -6.342189032960827 7.0607183996994145 -6.342257224781118 7.0607183996994145 -6.342257224781118 C 7.0607183996994145 -6.349621941372526 7.060513824238543 -6.356782082503061 7.060241056957379 -6.363942223633596 C 7.060172865137089 -6.366192553703193 7.060036481496507 -6.368374691952499 7.059900097855925 -6.370625022022096 C 7.059627330574762 -6.375671216723616 7.059286371473307 -6.3806492196048445 7.0588772205515635 -6.3855590306657835 C 7.058672645090691 -6.387945744375962 7.058468069629819 -6.3903324580861405 7.058263494168946 -6.392650979976027 C 7.057717959606618 -6.398038133779002 7.057104233224003 -6.4032889039413945 7.056422315021093 -6.408539674103787 C 7.056217739560221 -6.410108085970475 7.05608135591964 -6.411676497837164 7.055876780458767 -6.413176717883562 C 7.054990286794986 -6.4194503653503165 7.053967409490625 -6.42558762917649 7.0528081485456795 -6.431656701182372 C 7.052262613983354 -6.434452565814295 7.051717079421028 -6.4371120468056375 7.0511715448587005 -6.439907911437561 C 7.050489626655793 -6.443385694272392 7.049739516632593 -6.446795285286933 7.048921214789104 -6.4501366844811825 C 7.048171104765904 -6.453205316394269 7.047489186562997 -6.456342140127646 7.046670884719507 -6.459342580220442 C 7.045988966516599 -6.462070253032074 7.045170664673108 -6.4647979258437065 7.04442055464991 -6.467457406835049 C 7.040874579994788 -6.480072893588848 7.0367830707773384 -6.492211037600613 7.032146026997564 -6.503803647050051 C 7.031736876075819 -6.504758332534122 7.031395916974365 -6.505713018018193 7.030986766052621 -6.506667703502265 C 7.029213778725059 -6.510895596360295 7.027440791397498 -6.515123489218325 7.025531420429356 -6.519214998435775 C 7.025463228609065 -6.519351382076356 7.025395036788774 -6.519419573896647 7.025395036788774 -6.519555957537229 C 6.982229614544691 -6.613319710437095 6.902649760265314 -6.6684868930523615 6.804248963585672 -6.672987553191555 Z" fill="#ee3968" transform="matrix(1,0,0,1,0,0)" fill-rule="nonzero"></path></g><g clip-path="url(#SvgjsClipPath10005df840f7-9437-4b67-b711-65d0a7abd903)"><path d=" M 5.807693701855751 -6.053328482208949 C 5.844108133891043 -6.240651412547809 5.920414780796462 -6.435884594040402 6.036750026212586 -6.619252398802395 C 6.036886409853168 -6.619456974263268 6.036954601673459 -6.619593357903849 6.037090985314041 -6.619797933364722 C 6.111215493970153 -6.736746905163463 6.195432392029305 -6.839239211060554 6.285377402992886 -6.925297288267558 C 6.606424492922027 -7.232842397779119 6.999959487820302 -7.3319251126616685 7.26522566875156 -7.13805576757489 L 7.038828825386066 -7.303761890881563 C 6.699233560337823 -7.552662034943026 6.1496074887938805 -7.320809845954266 5.810694141948546 -6.786185974874302 C 5.471780795103212 -6.251562103794338 5.471098876900303 -5.616696256886882 5.810694141948546 -5.367796112825419 L 6.030817337847286 -5.206863416939102 C 5.81273989655727 -5.371410279300831 5.738479004260576 -5.698185482134401 5.807693701855751 -6.053328482208949 Z" fill="#ee3968" transform="matrix(1,0,0,1,0,0)" fill-rule="nonzero"></path></g><g clip-path="url(#SvgjsClipPath10005df840f7-9437-4b67-b711-65d0a7abd903)"><path d=" M 7.213740844431997 -5.639540516684304 L 7.264543750548652 -5.719665905526007 C 7.603457097393987 -6.2542897766059715 7.603457097393987 -6.889155623513428 7.264543750548652 -7.137373849371983 C 6.99975491235943 -7.3318569208413775 6.606356301101737 -7.23284239777912 6.285377402992886 -6.925297288267559 C 6.195500583849597 -6.839171019240263 6.111283685790444 -6.736746905163464 6.037090985314041 -6.619797933364722 C 6.036954601673459 -6.61959335790385 6.036886409853169 -6.619456974263268 6.036750026212587 -6.619252398802395 C 5.920551164437043 -6.435816402220111 5.844176325711334 -6.240651412547809 5.807693701855751 -6.053328482208949 C 5.7384790042605776 -5.698185482134401 5.812739896557271 -5.371410279300832 6.030817337847287 -5.206795225118812 C 6.032931284276302 -5.205226813252123 6.034977038885026 -5.203590209565144 6.037090985314041 -5.202021797698455 L 6.108624204799103 -5.149582287894821 L 6.650817367931348 -4.751955783779098 L 7.213740844431997 -5.639540516684304 Z M 6.650817367931346 -6.642983152263597 C 6.817955519464126 -6.713493494444297 6.961567492996576 -6.658599079110194 7.025395036788775 -6.5196923411778105 C 7.025463228609066 -6.519555957537229 7.025531420429356 -6.519487765716938 7.025531420429356 -6.519351382076356 C 7.027440791397499 -6.515259872858907 7.02921377872506 -6.511031980000877 7.030986766052621 -6.5068040871428465 C 7.031395916974366 -6.505849401658775 7.03173687607582 -6.504894716174704 7.032146026997564 -6.503940030690632 C 7.036783070777339 -6.492347421241195 7.040874579994789 -6.48020927722943 7.044420554649911 -6.46759379047563 C 7.04517066467311 -6.464866117663997 7.045920774696308 -6.462206636672656 7.046670884719507 -6.459478963861024 C 7.047420994742707 -6.456410331947937 7.048171104765906 -6.4533417000348505 7.048921214789104 -6.450273068121764 C 7.049739516632595 -6.4468634771072235 7.050421434835503 -6.443453886092683 7.051171544858702 -6.440044295078142 C 7.051717079421028 -6.4373166222665095 7.052330805803646 -6.434588949454877 7.052808148545681 -6.431793084822954 C 7.053899217670335 -6.425724012817072 7.054990286794987 -6.419586748990898 7.055876780458767 -6.413313101524144 C 7.05608135591964 -6.411812881477746 7.056217739560221 -6.410244469611057 7.056422315021095 -6.408676057744368 C 7.057104233224003 -6.403425287581976 7.05771795960662 -6.398174517419584 7.058263494168946 -6.392787363616609 C 7.058468069629819 -6.3904688417267215 7.058672645090691 -6.388082128016544 7.0588772205515635 -6.385695414306365 C 7.059286371473308 -6.380785603245426 7.059627330574763 -6.3758076003641975 7.059900097855926 -6.370761405662678 C 7.060036481496507 -6.36851107559308 7.060172865137089 -6.366328937343774 7.06024105695738 -6.364078607274178 C 7.060513824238543 -6.356918466143643 7.060718399699415 -6.3497583250131076 7.060718399699415 -6.3423936084217 C 7.060718399699415 -6.3423936084217 7.060718399699415 -6.342325416601408 7.060718399699415 -6.342325416601408 C 7.060718399699415 -6.0811507448876005 6.877282403117133 -5.792017426854558 6.650885559751638 -5.696548878447422 C 6.650885559751638 -5.696548878447422 6.650885559751638 -5.696548878447422 6.650885559751638 -5.696548878447422 C 6.644202761363138 -5.693753013815499 6.637519962974638 -5.691161724644448 6.63097354822672 -5.68877501093427 C 6.630018862742649 -5.688434051832815 6.628995985438286 -5.688093092731361 6.628041299954216 -5.687752133629908 C 6.6219722279483335 -5.685569995380602 6.615903155942451 -5.683592432592167 6.609902275756859 -5.681751253444316 C 6.609424933014823 -5.6816148698037345 6.609015782093079 -5.681478486163153 6.608538439351043 -5.681342102522571 C 6.567486963535974 -5.668999383049934 6.528208475048467 -5.664430531090449 6.491657659372592 -5.666885436620919 C 6.49152127573201 -5.666885436620919 6.491316700271138 -5.666885436620919 6.491180316630556 -5.666885436620919 C 6.479042172618792 -5.667703738464409 6.467108604067899 -5.669340342151388 6.455584186438752 -5.671727055861567 C 6.455584186438752 -5.671727055861567 6.4555159946184615 -5.671727055861567 6.4555159946184615 -5.671727055861567 C 6.450265224456069 -5.67281812498622 6.445014454293677 -5.674113769571745 6.439900067771866 -5.675545797797852 C 6.438877190467503 -5.675818565079015 6.437854313163141 -5.676159524180469 6.436763244038488 -5.676432291461633 C 6.432398967539877 -5.677727936047158 6.4280346910412645 -5.679091772452974 6.423738606362943 -5.680591992499372 C 6.422852112699163 -5.680932951600826 6.421897427215091 -5.681205718881989 6.42094274173102 -5.681546677983444 C 6.41596473884979 -5.6833196653110045 6.411123119609143 -5.685297228099438 6.406349692188786 -5.687411174528453 C 6.405190431243842 -5.687888517270489 6.40416755393948 -5.688434051832815 6.403008292994536 -5.688979586395142 C 6.399530510159705 -5.690616190082122 6.396052727324873 -5.692252793769102 6.3925749444900415 -5.694025781096663 C 6.3907337653421905 -5.694980466580734 6.38896077801463 -5.695935152064805 6.387187790687068 -5.696958029369167 C 6.384460117875435 -5.698458249415565 6.381800636884093 -5.700026661282253 6.379141155892752 -5.701595073148942 C 6.377231784924609 -5.702754334093886 6.375390605776758 -5.703845403218539 6.373549426628905 -5.705004664163483 C 6.370480794715819 -5.706982226951917 6.367548546443315 -5.709027981560641 6.364548106350519 -5.711073736169364 C 6.3616840498983045 -5.713119490778089 6.35888818526638 -5.715233437207105 6.356092320634458 -5.7173473836361195 C 6.354114757846024 -5.7189157955028085 6.3521371950575904 -5.7204160155492065 6.350159632269158 -5.722052619236186 C 6.347977494019851 -5.7238937983840374 6.345795355770545 -5.725734977531889 6.34368140934153 -5.727644348500032 C 6.342044805654551 -5.729076376726139 6.340476393787862 -5.730508404952246 6.3389079819211736 -5.732008624998644 C 6.336725843671868 -5.734054379607368 6.334475513602271 -5.736168326036384 6.332361567173256 -5.7382822724653995 C 6.331202306228311 -5.739441533410343 6.330043045283368 -5.740737177995868 6.328883784338425 -5.741964630761103 C 6.324519507839812 -5.746533482720587 6.320291614981782 -5.751306910140944 6.316200105764333 -5.756216721201882 C 6.315313612100552 -5.757307790326536 6.314358926616482 -5.758398859451189 6.3134724329527 -5.759489928575841 C 6.311290294703395 -5.762217601387474 6.309244540094671 -5.764945274199107 6.307130593665655 -5.767809330651321 C 6.306175908181584 -5.769104975236846 6.3051530308772215 -5.770468811642663 6.30419834539315 -5.771832648048479 C 6.302084398964135 -5.774764896320984 6.300038644355411 -5.777765336413779 6.298061081566978 -5.780765776506574 C 6.29751554700465 -5.781652270170356 6.2969700124423245 -5.782538763834136 6.296424477879998 -5.783357065677626 C 6.289673487671207 -5.793926797822701 6.283468032024743 -5.805178448170685 6.277808110940606 -5.817043824901287 C 6.277330768198571 -5.818066702205648 6.276785233636245 -5.8191577713303015 6.276307890894208 -5.820180648634664 C 6.274534903566647 -5.8240675823912404 6.272761916239086 -5.828022707968107 6.271057120731816 -5.832114217185556 C 6.271057120731816 -5.8321824090058465 6.270988928911525 -5.832250600826137 6.270988928911525 -5.832318792646428 C 6.2516906437692255 -5.8790301895456345 6.240984527983568 -5.934470139442064 6.240984527983568 -5.997342997750192 C 6.240984527983567 -6.25838128582342 6.424420524565852 -6.547514603856461 6.650817367931346 -6.642983152263597 Z" fill="#ed1c24" transform="matrix(1,0,0,1,0,0)" fill-rule="nonzero"></path></g></g><g><path d=" M 4.5300358886718755 0.016499999999999737 L 4.5300358886718755 1.0739999999999998 L 4.236035888671875 1.0739999999999998 L 4.236035888671875 0.4904999999999998 L 4.036535888671875 1.0739999999999998 L 3.790535888671875 1.0739999999999998 L 3.5895358886718753 0.4859999999999999 L 3.5895358886718753 1.0739999999999998 L 3.2955358886718753 1.0739999999999998 L 3.2955358886718753 0.016499999999999737 L 3.651035888671875 0.016499999999999737 L 3.9165358886718753 0.7034999999999998 L 4.176035888671875 0.016499999999999737 L 4.5300358886718755 0.016499999999999737 M 4.9905322265625 0.2519999999999998 L 4.9905322265625 0.4244999999999999 L 5.328032226562501 0.4244999999999999 L 5.328032226562501 0.6479999999999999 L 4.9905322265625 0.6479999999999999 L 4.9905322265625 0.8384999999999998 L 5.373032226562501 0.8384999999999998 L 5.373032226562501 1.0739999999999998 L 4.6965322265625 1.0739999999999998 L 4.6965322265625 0.016499999999999737 L 5.373032226562501 0.016499999999999737 L 5.373032226562501 0.2519999999999998 L 4.9905322265625 0.2519999999999998 M 5.61299267578125 0.9967499999999998 Q 5.49449267578125 0.9089999999999998 5.48549267578125 0.7454999999999998 L 5.79899267578125 0.7454999999999998 Q 5.80349267578125 0.8009999999999998 5.83199267578125 0.8264999999999998 Q 5.86049267578125 0.8519999999999999 5.90549267578125 0.8519999999999999 Q 5.94599267578125 0.8519999999999999 5.97224267578125 0.8317499999999999 Q 5.99849267578125 0.8114999999999999 5.99849267578125 0.7754999999999999 Q 5.99849267578125 0.7289999999999999 5.95499267578125 0.7034999999999998 Q 5.9114926757812505 0.6779999999999998 5.81399267578125 0.6464999999999999 Q 5.71049267578125 0.6119999999999999 5.64674267578125 0.5797499999999998 Q 5.5829926757812505 0.5474999999999999 5.5357426757812505 0.48524999999999985 Q 5.48849267578125 0.4229999999999998 5.48849267578125 0.3224999999999998 Q 5.48849267578125 0.2204999999999998 5.53949267578125 0.14774999999999983 Q 5.59049267578125 0.07499999999999984 5.68049267578125 0.03749999999999987 Q 5.7704926757812505 -2.220446049250313e-16 5.88449267578125 -2.220446049250313e-16 Q 6.06899267578125 -2.220446049250313e-16 6.17924267578125 0.08624999999999983 Q 6.289492675781251 0.17249999999999988 6.29699267578125 0.3284999999999998 L 5.97749267578125 0.3284999999999998 Q 5.97599267578125 0.28049999999999986 5.94824267578125 0.25649999999999984 Q 5.92049267578125 0.23249999999999982 5.87699267578125 0.23249999999999982 Q 5.84399267578125 0.23249999999999982 5.82299267578125 0.2519999999999998 Q 5.80199267578125 0.27149999999999985 5.80199267578125 0.3074999999999998 Q 5.80199267578125 0.3374999999999998 5.82524267578125 0.35924999999999985 Q 5.84849267578125 0.3809999999999998 5.88299267578125 0.3967499999999998 Q 5.91749267578125 0.41249999999999987 5.98499267578125 0.4364999999999998 Q 6.08549267578125 0.47099999999999986 6.15074267578125 0.5047499999999998 Q 6.2159926757812505 0.5384999999999999 6.2632426757812505 0.5992499999999998 Q 6.3104926757812505 0.6599999999999998 6.3104926757812505 0.7529999999999999 Q 6.3104926757812505 0.8474999999999998 6.2632426757812505 0.9224999999999999 Q 6.2159926757812505 0.9974999999999998 6.12674267578125 1.041 Q 6.03749267578125 1.0844999999999998 5.91599267578125 1.0844999999999998 Q 5.73149267578125 1.0844999999999998 5.61299267578125 0.9967499999999998 M 6.5414853515625 0.9967499999999998 Q 6.4229853515625 0.9089999999999998 6.4139853515625 0.7454999999999998 L 6.7274853515625 0.7454999999999998 Q 6.7319853515625 0.8009999999999998 6.7604853515625 0.8264999999999998 Q 6.7889853515625 0.8519999999999999 6.8339853515625 0.8519999999999999 Q 6.8744853515625 0.8519999999999999 6.9007353515625 0.8317499999999999 Q 6.9269853515625 0.8114999999999999 6.9269853515625 0.7754999999999999 Q 6.9269853515625 0.7289999999999999 6.8834853515625 0.7034999999999998 Q 6.8399853515625 0.6779999999999998 6.7424853515625 0.6464999999999999 Q 6.6389853515625 0.6119999999999999 6.5752353515625 0.5797499999999998 Q 6.5114853515625 0.5474999999999999 6.4642353515625 0.48524999999999985 Q 6.4169853515625 0.4229999999999998 6.4169853515625 0.3224999999999998 Q 6.4169853515625 0.2204999999999998 6.4679853515625 0.14774999999999983 Q 6.5189853515625 0.07499999999999984 6.6089853515625 0.03749999999999987 Q 6.6989853515625 -2.220446049250313e-16 6.8129853515625 -2.220446049250313e-16 Q 6.9974853515625 -2.220446049250313e-16 7.1077353515625 0.08624999999999983 Q 7.2179853515625005 0.17249999999999988 7.2254853515625 0.3284999999999998 L 6.9059853515625 0.3284999999999998 Q 6.9044853515625 0.28049999999999986 6.8767353515625 0.25649999999999984 Q 6.8489853515625 0.23249999999999982 6.8054853515625 0.23249999999999982 Q 6.7724853515625 0.23249999999999982 6.7514853515625 0.2519999999999998 Q 6.7304853515625 0.27149999999999985 6.7304853515625 0.3074999999999998 Q 6.7304853515625 0.3374999999999998 6.7537353515625 0.35924999999999985 Q 6.7769853515625 0.3809999999999998 6.8114853515625 0.3967499999999998 Q 6.8459853515625 0.41249999999999987 6.9134853515625 0.4364999999999998 Q 7.0139853515625 0.47099999999999986 7.0792353515625 0.5047499999999998 Q 7.1444853515625 0.5384999999999999 7.1917353515625 0.5992499999999998 Q 7.2389853515625004 0.6599999999999998 7.2389853515625004 0.7529999999999999 Q 7.2389853515625004 0.8474999999999998 7.1917353515625 0.9224999999999999 Q 7.1444853515625 0.9974999999999998 7.0552353515625 1.041 Q 6.9659853515625 1.0844999999999998 6.8444853515625 1.0844999999999998 Q 6.6599853515625 1.0844999999999998 6.5414853515625 0.9967499999999998 M 7.66797802734375 0.2519999999999998 L 7.66797802734375 0.4244999999999999 L 8.00547802734375 0.4244999999999999 L 8.00547802734375 0.6479999999999999 L 7.66797802734375 0.6479999999999999 L 7.66797802734375 0.8384999999999998 L 8.05047802734375 0.8384999999999998 L 8.05047802734375 1.0739999999999998 L 7.37397802734375 1.0739999999999998 L 7.37397802734375 0.016499999999999737 L 8.05047802734375 0.016499999999999737 L 8.05047802734375 0.2519999999999998 L 7.66797802734375 0.2519999999999998 M 8.7299384765625 1.0739999999999998 L 8.5199384765625 0.6839999999999998 L 8.4884384765625 0.6839999999999998 L 8.4884384765625 1.0739999999999998 L 8.1944384765625 1.0739999999999998 L 8.1944384765625 0.016499999999999737 L 8.6579384765625 0.016499999999999737 Q 8.7854384765625 0.016499999999999737 8.8739384765625 0.06074999999999986 Q 8.9624384765625 0.10499999999999987 9.0074384765625 0.1822499999999998 Q 9.0524384765625 0.25949999999999984 9.0524384765625 0.3554999999999998 Q 9.0524384765625 0.4634999999999998 8.9931884765625 0.5452499999999998 Q 8.9339384765625 0.6269999999999998 8.8199384765625 0.6614999999999998 L 9.0584384765625 1.0739999999999998 L 8.7299384765625 1.0739999999999998 M 8.4884384765625 0.4829999999999999 L 8.6339384765625 0.4829999999999999 Q 8.6939384765625 0.4829999999999999 8.7239384765625 0.4544999999999998 Q 8.7539384765625 0.4259999999999998 8.7539384765625 0.3719999999999998 Q 8.7539384765625 0.32099999999999984 8.7231884765625 0.29174999999999984 Q 8.6924384765625 0.26249999999999984 8.6339384765625 0.26249999999999984 L 8.4884384765625 0.26249999999999984 L 8.4884384765625 0.4829999999999999 M 10.00720458984375 0.6232499999999999 Q 10.06195458984375 0.6944999999999999 10.06195458984375 0.7859999999999998 Q 10.06195458984375 0.9209999999999998 9.96895458984375 0.9974999999999998 Q 9.875954589843749 1.0739999999999998 9.70795458984375 1.0739999999999998 L 9.18445458984375 1.0739999999999998 L 9.18445458984375 0.016499999999999737 L 9.69145458984375 0.016499999999999737 Q 9.85345458984375 0.016499999999999737 9.94570458984375 0.0884999999999998 Q 10.03795458984375 0.16049999999999986 10.03795458984375 0.2909999999999998 Q 10.03795458984375 0.3839999999999998 9.98920458984375 0.4462499999999998 Q 9.94045458984375 0.5084999999999998 9.85945458984375 0.5309999999999998 Q 9.95245458984375 0.5519999999999998 10.00720458984375 0.6232499999999999 M 9.47845458984375 0.4364999999999998 L 9.62695458984375 0.4364999999999998 Q 9.73795458984375 0.4364999999999998 9.73795458984375 0.34499999999999986 Q 9.73795458984375 0.25049999999999983 9.62695458984375 0.25049999999999983 L 9.47845458984375 0.25049999999999983 L 9.47845458984375 0.4364999999999998 M 9.76045458984375 0.7439999999999998 Q 9.76045458984375 0.6959999999999998 9.73120458984375 0.6704999999999999 Q 9.70195458984375 0.6449999999999998 9.64795458984375 0.6449999999999998 L 9.47845458984375 0.6449999999999998 L 9.47845458984375 0.8369999999999999 L 9.64945458984375 0.8369999999999999 Q 9.76045458984375 0.8369999999999999 9.76045458984375 0.7439999999999998 M 10.4834853515625 0.016499999999999737 L 10.4834853515625 1.0739999999999998 L 10.1894853515625 1.0739999999999998 L 10.1894853515625 0.016499999999999737 L 10.4834853515625 0.016499999999999737 M 11.44646044921875 0.016499999999999737 L 11.44646044921875 0.25049999999999983 L 11.16446044921875 0.25049999999999983 L 11.16446044921875 1.0739999999999998 L 10.87046044921875 1.0739999999999998 L 10.87046044921875 0.25049999999999983 L 10.591460449218749 0.25049999999999983 L 10.591460449218749 0.016499999999999737 L 11.44646044921875 0.016499999999999737" fill="#9e0f11" fill-rule="nonzero"></path></g><g><path d=" M 0.38925 1.4342249999999999 L 0.38925 1.5369749999999998 L 0.17475000000000002 1.5369749999999998 L 0.17475000000000002 1.6479749999999997 L 0.33525 1.6479749999999997 L 0.33525 1.7477249999999998 L 0.17475000000000002 1.7477249999999998 L 0.17475000000000002 1.9607249999999998 L 0.0465 1.9607249999999998 L 0.0465 1.4342249999999999 L 0.38925 1.4342249999999999 M 0.584997802734375 1.4342249999999999 L 0.584997802734375 1.9607249999999998 L 0.456747802734375 1.9607249999999998 L 0.456747802734375 1.4342249999999999 L 0.584997802734375 1.4342249999999999 M 1.1489849853515626 1.9607249999999998 L 1.0207349853515626 1.9607249999999998 L 0.8062349853515625 1.6359749999999997 L 0.8062349853515625 1.9607249999999998 L 0.6779849853515625 1.9607249999999998 L 0.6779849853515625 1.4342249999999999 L 0.8062349853515625 1.4342249999999999 L 1.0207349853515626 1.7604749999999998 L 1.0207349853515626 1.4342249999999999 L 1.1489849853515626 1.4342249999999999 L 1.1489849853515626 1.9607249999999998 M 1.58474560546875 1.4672249999999998 Q 1.64699560546875 1.500225 1.68112060546875 1.55985 Q 1.7152456054687502 1.6194749999999998 1.7152456054687502 1.6974749999999998 Q 1.7152456054687502 1.7747249999999999 1.68112060546875 1.8347249999999997 Q 1.64699560546875 1.8947249999999998 1.58437060546875 1.927725 Q 1.52174560546875 1.9607249999999998 1.43924560546875 1.9607249999999998 L 1.24199560546875 1.9607249999999998 L 1.24199560546875 1.4342249999999999 L 1.43924560546875 1.4342249999999999 Q 1.52249560546875 1.4342249999999999 1.58474560546875 1.4672249999999998 M 1.54424560546875 1.809975 Q 1.58474560546875 1.770225 1.58474560546875 1.6974749999999998 Q 1.58474560546875 1.6247249999999998 1.54424560546875 1.5842249999999998 Q 1.5037456054687501 1.5437249999999998 1.43099560546875 1.5437249999999998 L 1.37024560546875 1.5437249999999998 L 1.37024560546875 1.8497249999999998 L 1.43099560546875 1.8497249999999998 Q 1.5037456054687501 1.8497249999999998 1.54424560546875 1.809975 M 2.32496923828125 1.4342249999999999 L 2.32496923828125 1.5369749999999998 L 2.18546923828125 1.5369749999999998 L 2.18546923828125 1.9607249999999998 L 2.05721923828125 1.9607249999999998 L 2.05721923828125 1.5369749999999998 L 1.91771923828125 1.5369749999999998 L 1.91771923828125 1.4342249999999999 L 2.32496923828125 1.4342249999999999 M 2.8454718017578124 1.4342249999999999 L 2.8454718017578124 1.9607249999999998 L 2.7172218017578125 1.9607249999999998 L 2.7172218017578125 1.7439749999999998 L 2.5177218017578125 1.7439749999999998 L 2.5177218017578125 1.9607249999999998 L 2.3894718017578125 1.9607249999999998 L 2.3894718017578125 1.4342249999999999 L 2.5177218017578125 1.4342249999999999 L 2.5177218017578125 1.640475 L 2.7172218017578125 1.640475 L 2.7172218017578125 1.4342249999999999 L 2.8454718017578124 1.4342249999999999 M 3.0659853515625 1.5369749999999998 L 3.0659853515625 1.6434749999999998 L 3.2377353515625 1.6434749999999998 L 3.2377353515625 1.7424749999999998 L 3.0659853515625 1.7424749999999998 L 3.0659853515625 1.8579749999999997 L 3.2602353515624998 1.8579749999999997 L 3.2602353515624998 1.9607249999999998 L 2.9377353515625 1.9607249999999998 L 2.9377353515625 1.4342249999999999 L 3.2602353515624998 1.4342249999999999 L 3.2602353515624998 1.5369749999999998 L 3.0659853515625 1.5369749999999998 M 3.8827283935546877 1.68735 Q 3.8617283935546873 1.7252249999999998 3.8182283935546875 1.7484749999999998 Q 3.7747283935546876 1.7717249999999998 3.7102283935546874 1.7717249999999998 L 3.6307283935546875 1.7717249999999998 L 3.6307283935546875 1.9607249999999998 L 3.5024783935546875 1.9607249999999998 L 3.5024783935546875 1.4342249999999999 L 3.7102283935546874 1.4342249999999999 Q 3.7732283935546875 1.4342249999999999 3.8167283935546874 1.4559749999999998 Q 3.8602283935546877 1.477725 3.8819783935546877 1.5159749999999999 Q 3.9037283935546876 1.5542249999999997 3.9037283935546876 1.6037249999999998 Q 3.9037283935546876 1.6494749999999998 3.8827283935546877 1.68735 M 3.7552283935546873 1.652475 Q 3.7732283935546875 1.6352249999999997 3.7732283935546875 1.6037249999999998 Q 3.7732283935546875 1.5722249999999998 3.7552283935546873 1.5549749999999998 Q 3.7372283935546875 1.5377249999999998 3.7004783935546874 1.5377249999999998 L 3.6307283935546875 1.5377249999999998 L 3.6307283935546875 1.669725 L 3.7004783935546874 1.669725 Q 3.7372283935546875 1.669725 3.7552283935546873 1.652475 M 4.098745971679688 1.5369749999999998 L 4.098745971679688 1.6434749999999998 L 4.270495971679687 1.6434749999999998 L 4.270495971679687 1.7424749999999998 L 4.098745971679688 1.7424749999999998 L 4.098745971679688 1.8579749999999997 L 4.292995971679687 1.8579749999999997 L 4.292995971679687 1.9607249999999998 L 3.9704959716796875 1.9607249999999998 L 3.9704959716796875 1.4342249999999999 L 4.292995971679687 1.4342249999999999 L 4.292995971679687 1.5369749999999998 L 4.098745971679688 1.5369749999999998 M 4.644757690429688 1.9607249999999998 L 4.535257690429687 1.7619749999999998 L 4.504507690429688 1.7619749999999998 L 4.504507690429688 1.9607249999999998 L 4.3762576904296875 1.9607249999999998 L 4.3762576904296875 1.4342249999999999 L 4.591507690429688 1.4342249999999999 Q 4.653757690429687 1.4342249999999999 4.697632690429687 1.4559749999999998 Q 4.741507690429687 1.477725 4.763257690429688 1.5155999999999998 Q 4.785007690429688 1.5534749999999997 4.785007690429688 1.5999749999999997 Q 4.785007690429688 1.652475 4.755382690429688 1.6937249999999997 Q 4.725757690429687 1.734975 4.668007690429688 1.752225 L 4.789507690429687 1.9607249999999998 L 4.644757690429688 1.9607249999999998 M 4.504507690429688 1.6712249999999997 L 4.584007690429687 1.6712249999999997 Q 4.619257690429688 1.6712249999999997 4.636882690429688 1.6539749999999998 Q 4.654507690429687 1.6367249999999998 4.654507690429687 1.605225 Q 4.654507690429687 1.5752249999999999 4.636882690429688 1.5579749999999999 Q 4.619257690429688 1.540725 4.584007690429687 1.540725 L 4.504507690429688 1.540725 L 4.504507690429688 1.6712249999999997 M 5.207990844726562 1.4342249999999999 L 5.207990844726562 1.5369749999999998 L 4.993490844726563 1.5369749999999998 L 4.993490844726563 1.6479749999999997 L 5.153990844726563 1.6479749999999997 L 5.153990844726563 1.7477249999999998 L 4.993490844726563 1.7477249999999998 L 4.993490844726563 1.9607249999999998 L 4.8652408447265625 1.9607249999999998 L 4.8652408447265625 1.4342249999999999 L 5.207990844726562 1.4342249999999999 M 5.403738647460938 1.5369749999999998 L 5.403738647460938 1.6434749999999998 L 5.575488647460937 1.6434749999999998 L 5.575488647460937 1.7424749999999998 L 5.403738647460938 1.7424749999999998 L 5.403738647460938 1.8579749999999997 L 5.597988647460937 1.8579749999999997 L 5.597988647460937 1.9607249999999998 L 5.2754886474609375 1.9607249999999998 L 5.2754886474609375 1.4342249999999999 L 5.597988647460937 1.4342249999999999 L 5.597988647460937 1.5369749999999998 L 5.403738647460938 1.5369749999999998 M 5.693250366210938 1.5575999999999999 Q 5.727000366210937 1.4964749999999998 5.787375366210938 1.4623499999999998 Q 5.847750366210938 1.4282249999999999 5.924250366210938 1.4282249999999999 Q 6.018000366210938 1.4282249999999999 6.084750366210938 1.477725 Q 6.1515003662109375 1.5272249999999998 6.1740003662109375 1.6127249999999997 L 6.0330003662109375 1.6127249999999997 Q 6.017250366210938 1.5797249999999998 5.988375366210938 1.5624749999999998 Q 5.959500366210937 1.5452249999999998 5.922750366210938 1.5452249999999998 Q 5.863500366210937 1.5452249999999998 5.826750366210938 1.5864749999999999 Q 5.790000366210937 1.6277249999999999 5.790000366210937 1.6967249999999998 Q 5.790000366210937 1.7657249999999998 5.826750366210938 1.8069749999999998 Q 5.863500366210937 1.8482249999999998 5.922750366210938 1.8482249999999998 Q 5.959500366210937 1.8482249999999998 5.988375366210938 1.8309749999999998 Q 6.017250366210938 1.8137249999999998 6.0330003662109375 1.780725 L 6.1740003662109375 1.780725 Q 6.1515003662109375 1.8662249999999998 6.084750366210938 1.9153499999999999 Q 6.018000366210938 1.9644749999999997 5.924250366210938 1.9644749999999997 Q 5.847750366210938 1.9644749999999997 5.787375366210938 1.9303499999999998 Q 5.727000366210937 1.8962249999999998 5.693250366210938 1.8354749999999997 Q 5.6595003662109375 1.7747249999999999 5.6595003662109375 1.6967249999999998 Q 5.6595003662109375 1.6187249999999997 5.693250366210938 1.5575999999999999 M 6.631518310546875 1.4342249999999999 L 6.631518310546875 1.5369749999999998 L 6.492018310546875 1.5369749999999998 L 6.492018310546875 1.9607249999999998 L 6.363768310546875 1.9607249999999998 L 6.363768310546875 1.5369749999999998 L 6.224268310546875 1.5369749999999998 L 6.224268310546875 1.4342249999999999 L 6.631518310546875 1.4342249999999999 M 7.123502197265625 1.9607249999999998 L 7.014002197265625 1.7619749999999998 L 6.983252197265625 1.7619749999999998 L 6.983252197265625 1.9607249999999998 L 6.855002197265625 1.9607249999999998 L 6.855002197265625 1.4342249999999999 L 7.070252197265625 1.4342249999999999 Q 7.132502197265625 1.4342249999999999 7.176377197265625 1.4559749999999998 Q 7.220252197265625 1.477725 7.242002197265625 1.5155999999999998 Q 7.263752197265625 1.5534749999999997 7.263752197265625 1.5999749999999997 Q 7.263752197265625 1.652475 7.234127197265625 1.6937249999999997 Q 7.204502197265625 1.734975 7.146752197265625 1.752225 L 7.268252197265625 1.9607249999999998 L 7.123502197265625 1.9607249999999998 M 6.983252197265625 1.6712249999999997 L 7.062752197265625 1.6712249999999997 Q 7.098002197265625 1.6712249999999997 7.115627197265625 1.6539749999999998 Q 7.133252197265625 1.6367249999999998 7.133252197265625 1.605225 Q 7.133252197265625 1.5752249999999999 7.115627197265625 1.5579749999999999 Q 7.098002197265625 1.540725 7.062752197265625 1.540725 L 6.983252197265625 1.540725 L 6.983252197265625 1.6712249999999997 M 7.4568603515625 1.9314749999999998 Q 7.3949853515625 1.8969749999999999 7.3586103515625 1.8350999999999997 Q 7.3222353515625 1.7732249999999998 7.3222353515625 1.6959749999999998 Q 7.3222353515625 1.6187249999999997 7.3586103515625 1.5572249999999999 Q 7.3949853515625 1.4957249999999997 7.4568603515625 1.4612249999999998 Q 7.5187353515625 1.4267249999999998 7.5929853515625 1.4267249999999998 Q 7.6672353515625 1.4267249999999998 7.7291103515625 1.4612249999999998 Q 7.7909853515625 1.4957249999999997 7.8266103515625 1.5572249999999999 Q 7.8622353515625 1.6187249999999997 7.8622353515625 1.6959749999999998 Q 7.8622353515625 1.7732249999999998 7.8262353515625005 1.8350999999999997 Q 7.7902353515625 1.8969749999999999 7.7287353515625 1.9314749999999998 Q 7.6672353515625 1.9659749999999998 7.5929853515625 1.9659749999999998 Q 7.5187353515625 1.9659749999999998 7.4568603515625 1.9314749999999998 M 7.6938603515625 1.8069749999999998 Q 7.7317353515625005 1.7649749999999997 7.7317353515625005 1.6959749999999998 Q 7.7317353515625005 1.6262249999999998 7.6938603515625 1.5845999999999998 Q 7.6559853515625 1.5429749999999998 7.5929853515625 1.5429749999999998 Q 7.5292353515625 1.5429749999999998 7.4913603515625 1.5842249999999998 Q 7.4534853515625 1.6254749999999998 7.4534853515625 1.6959749999999998 Q 7.4534853515625 1.7657249999999998 7.4913603515625 1.8073499999999998 Q 7.5292353515625 1.8489749999999998 7.5929853515625 1.8489749999999998 Q 7.6559853515625 1.8489749999999998 7.6938603515625 1.8069749999999998 M 8.046368408203126 1.9314749999999998 Q 7.984493408203125 1.8969749999999999 7.948118408203125 1.8350999999999997 Q 7.911743408203125 1.7732249999999998 7.911743408203125 1.6959749999999998 Q 7.911743408203125 1.6187249999999997 7.948118408203125 1.5572249999999999 Q 7.984493408203125 1.4957249999999997 8.046368408203126 1.4612249999999998 Q 8.108243408203125 1.4267249999999998 8.182493408203126 1.4267249999999998 Q 8.256743408203125 1.4267249999999998 8.318618408203125 1.4612249999999998 Q 8.380493408203124 1.4957249999999997 8.416118408203126 1.5572249999999999 Q 8.451743408203125 1.6187249999999997 8.451743408203125 1.6959749999999998 Q 8.451743408203125 1.7732249999999998 8.415743408203125 1.8350999999999997 Q 8.379743408203126 1.8969749999999999 8.318243408203125 1.9314749999999998 Q 8.256743408203125 1.9659749999999998 8.182493408203126 1.9659749999999998 Q 8.108243408203125 1.9659749999999998 8.046368408203126 1.9314749999999998 M 8.283368408203126 1.8069749999999998 Q 8.321243408203125 1.7649749999999997 8.321243408203125 1.6959749999999998 Q 8.321243408203125 1.6262249999999998 8.283368408203126 1.5845999999999998 Q 8.245493408203124 1.5429749999999998 8.182493408203126 1.5429749999999998 Q 8.118743408203125 1.5429749999999998 8.080868408203125 1.5842249999999998 Q 8.042993408203126 1.6254749999999998 8.042993408203126 1.6959749999999998 Q 8.042993408203126 1.7657249999999998 8.080868408203125 1.8073499999999998 Q 8.118743408203125 1.8489749999999998 8.182493408203126 1.8489749999999998 Q 8.245493408203124 1.8489749999999998 8.283368408203126 1.8069749999999998 M 9.11925146484375 1.4342249999999999 L 9.11925146484375 1.9607249999999998 L 8.99100146484375 1.9607249999999998 L 8.99100146484375 1.6449749999999999 L 8.87325146484375 1.9607249999999998 L 8.76975146484375 1.9607249999999998 L 8.65125146484375 1.6442249999999998 L 8.65125146484375 1.9607249999999998 L 8.52300146484375 1.9607249999999998 L 8.52300146484375 1.4342249999999999 L 8.67450146484375 1.4342249999999999 L 8.82225146484375 1.798725 L 8.96850146484375 1.4342249999999999 L 9.11925146484375 1.4342249999999999 M 9.349523803710937 1.8422249999999998 L 9.266273803710938 2.0574749999999997 L 9.184523803710938 2.0574749999999997 L 9.228023803710938 1.8422249999999998 L 9.349523803710937 1.8422249999999998 M 10.04174560546875 1.4342249999999999 L 10.04174560546875 1.9607249999999998 L 9.91349560546875 1.9607249999999998 L 9.91349560546875 1.7439749999999998 L 9.71399560546875 1.7439749999999998 L 9.71399560546875 1.9607249999999998 L 9.58574560546875 1.9607249999999998 L 9.58574560546875 1.4342249999999999 L 9.71399560546875 1.4342249999999999 L 9.71399560546875 1.640475 L 9.91349560546875 1.640475 L 9.91349560546875 1.4342249999999999 L 10.04174560546875 1.4342249999999999 M 10.461759155273437 1.8677249999999999 L 10.265259155273437 1.8677249999999999 L 10.233759155273438 1.9607249999999998 L 10.099509155273438 1.9607249999999998 L 10.290009155273438 1.4342249999999999 L 10.438509155273438 1.4342249999999999 L 10.629009155273437 1.9607249999999998 L 10.493259155273437 1.9607249999999998 L 10.461759155273437 1.8677249999999999 M 10.428759155273438 1.7687249999999999 L 10.363509155273437 1.575975 L 10.299009155273437 1.7687249999999999 L 10.428759155273438 1.7687249999999999 M 10.7737587890625 1.9472249999999998 Q 10.7280087890625 1.9284749999999997 10.7006337890625 1.8917249999999999 Q 10.6732587890625 1.8549749999999998 10.6717587890625 1.8032249999999999 L 10.8082587890625 1.8032249999999999 Q 10.8112587890625 1.8324749999999999 10.8285087890625 1.8478499999999998 Q 10.8457587890625 1.863225 10.8735087890625 1.863225 Q 10.9020087890625 1.863225 10.9185087890625 1.8500999999999999 Q 10.9350087890625 1.8369749999999998 10.9350087890625 1.8137249999999998 Q 10.9350087890625 1.7942249999999997 10.9218837890625 1.781475 Q 10.9087587890625 1.7687249999999999 10.8896337890625 1.7604749999999998 Q 10.8705087890625 1.752225 10.8352587890625 1.7417249999999997 Q 10.7842587890625 1.7259749999999998 10.7520087890625 1.7102249999999999 Q 10.7197587890625 1.6944749999999997 10.6965087890625 1.663725 Q 10.6732587890625 1.6329749999999998 10.6732587890625 1.5834749999999997 Q 10.6732587890625 1.5099749999999998 10.7265087890625 1.4683499999999998 Q 10.7797587890625 1.4267249999999998 10.8652587890625 1.4267249999999998 Q 10.9522587890625 1.4267249999999998 11.0055087890625 1.4683499999999998 Q 11.0587587890625 1.5099749999999998 11.0625087890625 1.5842249999999998 L 10.9237587890625 1.5842249999999998 Q 10.9222587890625 1.558725 10.9050087890625 1.5440999999999998 Q 10.8877587890625 1.5294749999999997 10.8607587890625 1.5294749999999997 Q 10.8375087890625 1.5294749999999997 10.8232587890625 1.5418499999999997 Q 10.8090087890625 1.5542249999999997 10.8090087890625 1.5774749999999997 Q 10.8090087890625 1.6029749999999998 10.8330087890625 1.617225 Q 10.8570087890625 1.6314749999999998 10.9080087890625 1.6479749999999997 Q 10.9590087890625 1.665225 10.9908837890625 1.6809749999999999 Q 11.0227587890625 1.6967249999999998 11.0460087890625 1.7267249999999998 Q 11.0692587890625 1.7567249999999999 11.0692587890625 1.8039749999999999 Q 11.0692587890625 1.8489749999999998 11.0463837890625 1.8857249999999999 Q 11.0235087890625 1.922475 10.9800087890625 1.9442249999999999 Q 10.9365087890625 1.9659749999999998 10.8772587890625 1.9659749999999998 Q 10.8195087890625 1.9659749999999998 10.7737587890625 1.9472249999999998 M 11.23500146484375 1.9472249999999998 Q 11.18925146484375 1.9284749999999997 11.16187646484375 1.8917249999999999 Q 11.13450146484375 1.8549749999999998 11.13300146484375 1.8032249999999999 L 11.26950146484375 1.8032249999999999 Q 11.27250146484375 1.8324749999999999 11.28975146484375 1.8478499999999998 Q 11.30700146484375 1.863225 11.33475146484375 1.863225 Q 11.36325146484375 1.863225 11.37975146484375 1.8500999999999999 Q 11.39625146484375 1.8369749999999998 11.39625146484375 1.8137249999999998 Q 11.39625146484375 1.7942249999999997 11.38312646484375 1.781475 Q 11.37000146484375 1.7687249999999999 11.35087646484375 1.7604749999999998 Q 11.33175146484375 1.752225 11.29650146484375 1.7417249999999997 Q 11.24550146484375 1.7259749999999998 11.21325146484375 1.7102249999999999 Q 11.18100146484375 1.6944749999999997 11.15775146484375 1.663725 Q 11.13450146484375 1.6329749999999998 11.13450146484375 1.5834749999999997 Q 11.13450146484375 1.5099749999999998 11.18775146484375 1.4683499999999998 Q 11.24100146484375 1.4267249999999998 11.32650146484375 1.4267249999999998 Q 11.41350146484375 1.4267249999999998 11.46675146484375 1.4683499999999998 Q 11.52000146484375 1.5099749999999998 11.52375146484375 1.5842249999999998 L 11.38500146484375 1.5842249999999998 Q 11.38350146484375 1.558725 11.36625146484375 1.5440999999999998 Q 11.34900146484375 1.5294749999999997 11.32200146484375 1.5294749999999997 Q 11.29875146484375 1.5294749999999997 11.28450146484375 1.5418499999999997 Q 11.27025146484375 1.5542249999999997 11.27025146484375 1.5774749999999997 Q 11.27025146484375 1.6029749999999998 11.29425146484375 1.617225 Q 11.31825146484375 1.6314749999999998 11.36925146484375 1.6479749999999997 Q 11.42025146484375 1.665225 11.45212646484375 1.6809749999999999 Q 11.48400146484375 1.6967249999999998 11.50725146484375 1.7267249999999998 Q 11.53050146484375 1.7567249999999999 11.53050146484375 1.8039749999999999 Q 11.53050146484375 1.8489749999999998 11.50762646484375 1.8857249999999999 Q 11.48475146484375 1.922475 11.44125146484375 1.9442249999999999 Q 11.39775146484375 1.9659749999999998 11.33850146484375 1.9659749999999998 Q 11.28075146484375 1.9659749999999998 11.23500146484375 1.9472249999999998 M 11.737494140625 1.8617249999999999 L 11.905494140625 1.8617249999999999 L 11.905494140625 1.9607249999999998 L 11.609244140625 1.9607249999999998 L 11.609244140625 1.4342249999999999 L 11.737494140625 1.4342249999999999 L 11.737494140625 1.8617249999999999 M 12.095236450195312 1.5369749999999998 L 12.095236450195312 1.6434749999999998 L 12.266986450195313 1.6434749999999998 L 12.266986450195313 1.7424749999999998 L 12.095236450195312 1.7424749999999998 L 12.095236450195312 1.8579749999999997 L 12.289486450195312 1.8579749999999997 L 12.289486450195312 1.9607249999999998 L 11.966986450195312 1.9607249999999998 L 11.966986450195312 1.4342249999999999 L 12.289486450195312 1.4342249999999999 L 12.289486450195312 1.5369749999999998 L 12.095236450195312 1.5369749999999998 M 12.695248168945312 1.6442249999999998 L 12.695248168945312 1.7507249999999999 L 12.365248168945312 1.7507249999999999 L 12.365248168945312 1.6442249999999998 L 12.695248168945312 1.6442249999999998 M 13.150510986328126 1.4342249999999999 L 13.150510986328126 1.5369749999999998 L 12.936010986328125 1.5369749999999998 L 12.936010986328125 1.6479749999999997 L 13.096510986328125 1.6479749999999997 L 13.096510986328125 1.7477249999999998 L 12.936010986328125 1.7477249999999998 L 12.936010986328125 1.9607249999999998 L 12.807760986328125 1.9607249999999998 L 12.807760986328125 1.4342249999999999 L 13.150510986328126 1.4342249999999999 M 13.4865087890625 1.9607249999999998 L 13.3770087890625 1.7619749999999998 L 13.3462587890625 1.7619749999999998 L 13.3462587890625 1.9607249999999998 L 13.2180087890625 1.9607249999999998 L 13.2180087890625 1.4342249999999999 L 13.4332587890625 1.4342249999999999 Q 13.4955087890625 1.4342249999999999 13.5393837890625 1.4559749999999998 Q 13.5832587890625 1.477725 13.6050087890625 1.5155999999999998 Q 13.6267587890625 1.5534749999999997 13.6267587890625 1.5999749999999997 Q 13.6267587890625 1.652475 13.5971337890625 1.6937249999999997 Q 13.5675087890625 1.734975 13.5097587890625 1.752225 L 13.6312587890625 1.9607249999999998 L 13.4865087890625 1.9607249999999998 M 13.3462587890625 1.6712249999999997 L 13.4257587890625 1.6712249999999997 Q 13.4610087890625 1.6712249999999997 13.4786337890625 1.6539749999999998 Q 13.4962587890625 1.6367249999999998 13.4962587890625 1.605225 Q 13.4962587890625 1.5752249999999999 13.4786337890625 1.5579749999999999 Q 13.4610087890625 1.540725 13.4257587890625 1.540725 L 13.3462587890625 1.540725 L 13.3462587890625 1.6712249999999997 M 13.835241943359375 1.5369749999999998 L 13.835241943359375 1.6434749999999998 L 14.006991943359376 1.6434749999999998 L 14.006991943359376 1.7424749999999998 L 13.835241943359375 1.7424749999999998 L 13.835241943359375 1.8579749999999997 L 14.029491943359375 1.8579749999999997 L 14.029491943359375 1.9607249999999998 L 13.706991943359375 1.9607249999999998 L 13.706991943359375 1.4342249999999999 L 14.029491943359375 1.4342249999999999 L 14.029491943359375 1.5369749999999998 L 13.835241943359375 1.5369749999999998 M 14.241003662109375 1.5369749999999998 L 14.241003662109375 1.6434749999999998 L 14.412753662109376 1.6434749999999998 L 14.412753662109376 1.7424749999999998 L 14.241003662109375 1.7424749999999998 L 14.241003662109375 1.8579749999999997 L 14.435253662109375 1.8579749999999997 L 14.435253662109375 1.9607249999999998 L 14.112753662109375 1.9607249999999998 L 14.112753662109375 1.4342249999999999 L 14.435253662109375 1.4342249999999999 L 14.435253662109375 1.5369749999999998 L 14.241003662109375 1.5369749999999998 M 14.523390380859375 1.9468499999999997 Q 14.502015380859374 1.9269749999999999 14.502015380859374 1.8977249999999999 Q 14.502015380859374 1.8677249999999999 14.523390380859375 1.8474749999999998 Q 14.544765380859374 1.8272249999999999 14.578515380859375 1.8272249999999999 Q 14.611515380859375 1.8272249999999999 14.632890380859376 1.8474749999999998 Q 14.654265380859375 1.8677249999999999 14.654265380859375 1.8977249999999999 Q 14.654265380859375 1.9269749999999999 14.632890380859376 1.9468499999999997 Q 14.611515380859375 1.9667249999999998 14.578515380859375 1.9667249999999998 Q 14.544765380859374 1.9667249999999998 14.523390380859375 1.9468499999999997" fill="#ed1c24" fill-rule="nonzero"></path></g></g><defs><clipPath id="SvgjsClipPath1001"><path d=" M 4.2220189363426135 -7.403742589846101 h 6.239464324580398 v 7.153742589846101 h -6.239464324580398 Z"></path></clipPath><clipPath id="SvgjsClipPath10005df840f7-9437-4b67-b711-65d0a7abd903"><path d=" M 4.2220189363426135 -7.403742589846101 L 10.46148326092301 -7.403742589846101 L 10.46148326092301 -0.25 L 4.2220189363426135 -0.25 Z"></path></clipPath></defs></svg>